<?xml version="1.0" encoding="UTF-8" standalone="no"?>
<svg xmlns="http://www.w3.org/2000/svg" version="1.2" baseProfile="tiny" viewBox="0 0 481 461">
<g stroke-width="2.00" fill="none" stroke-linecap="butt">
<path stroke="#848382" vector-effect="non-scaling-stroke" d="
  M 481.01 251.54
  C 472.70 247.29 469.01 245.02 466.50 235.50
  C 460.01 210.81 453.03 188.33 446.34 164.93
  C 442.93 153.01 436.32 140.88 422.25 139.63
  C 411.97 138.71 402.75 137.47 392.53 134.21
  Q 365.50 125.59 338.40 117.23
  C 330.28 114.73 324.76 113.92 318.67 119.67
  C 309.68 128.15 298.73 138.40 292.77 149.28
  A 1.11 1.11 0.0 0 1 290.88 149.38
  C 289.23 146.99 295.01 132.96 296.14 129.78
  Q 298.51 123.11 298.76 118.96
  C 299.44 107.46 294.38 93.23 287.60 84.00
  Q 281.77 76.06 277.39 67.23
  C 273.32 59.01 270.55 53.28 261.01 50.71
  Q 248.02 47.21 238.53 45.23
  C 223.48 42.09 210.63 37.68 196.72 32.98
  C 161.58 21.13 125.94 24.09 94.62 43.69
  C 76.96 54.74 59.88 71.46 50.98 90.46
  Q 40.60 112.61 37.29 135.51
  C 36.26 142.59 36.15 157.29 40.85 165.48
  Q 41.17 166.04 40.79 166.56
  L 38.74 169.38
  Q 38.47 169.76 38.47 170.23
  C 38.55 176.68 41.31 184.29 38.19 189.94
  Q 34.85 195.99 31.68 202.12
  C 28.40 208.46 28.75 214.27 30.51 221.49
  C 32.55 229.86 35.61 243.18 41.13 249.80
  Q 51.85 262.67 61.72 275.69
  A 0.92 0.91 -44.7 0 1 61.71 276.81
  Q 53.19 287.74 44.33 297.12
  C 36.30 305.62 33.45 311.01 31.76 322.25
  Q 29.84 334.98 30.91 343.94
  Q 31.02 344.82 31.21 343.95
  Q 33.83 332.39 35.80 320.70
  C 38.06 307.29 47.95 298.21 56.80 288.67
  A 0.47 0.47 0.0 0 1 57.60 289.10
  C 52.55 309.51 59.88 333.18 71.29 349.97
  C 78.85 361.11 92.06 373.84 102.19 382.80
  Q 121.11 399.55 134.42 412.39
  C 142.90 420.58 152.23 431.70 161.53 440.97
  A 0.17 0.17 0.0 0 0 161.79 440.75
  C 151.34 425.00 139.64 412.20 125.43 399.19
  C 109.88 384.94 93.62 371.11 80.08 355.41
  C 66.55 339.73 58.99 318.17 60.58 297.33
  C 60.94 292.60 60.24 285.71 63.14 281.91
  C 67.86 275.74 77.23 279.09 77.45 268.57
  Q 77.65 258.98 75.78 249.53
  Q 75.65 248.91 75.47 249.52
  Q 73.12 257.26 73.51 265.35
  C 73.62 267.80 73.55 273.08 71.08 274.32
  C 67.46 276.14 64.82 274.83 62.48 271.66
  Q 53.83 259.92 44.57 248.66
  C 38.52 241.31 36.34 229.20 33.77 220.07
  C 33.01 217.39 33.24 214.42 33.10 211.61
  C 32.69 203.44 39.31 194.18 45.14 189.11
  A 1.66 1.64 30.0 0 1 46.55 188.74
  Q 53.00 190.04 58.68 193.31
  A 0.49 0.49 0.0 0 0 59.37 192.68
  C 57.33 188.27 52.70 186.69 47.56 185.02
  Q 46.65 184.73 47.39 184.13
  Q 48.32 183.38 50.20 182.20
  Q 68.02 171.12 87.17 162.25
  A 0.45 0.44 80.1 0 1 87.80 162.70
  C 86.94 172.03 88.56 188.79 79.56 194.84
  C 77.88 195.97 68.70 201.32 68.79 202.98
  A 0.88 0.87 75.3 0 0 70.05 203.72
  C 80.11 198.72 90.54 192.28 90.74 179.58
  Q 90.88 170.66 91.55 161.65
  Q 91.59 161.14 91.96 160.79
  Q 94.55 158.35 98.02 157.29
  C 108.18 154.19 118.00 151.86 128.81 150.39
  C 161.02 146.01 193.16 145.63 225.56 147.99
  Q 251.33 149.87 278.98 157.31
  Q 280.63 157.76 281.62 158.29
  Q 282.03 158.52 282.06 158.99
  L 282.80 171.33
  A 0.58 0.58 0.0 0 1 281.88 171.84
  C 279.89 170.41 278.26 169.03 275.77 168.64
  C 263.06 166.70 249.32 170.59 236.30 174.37
  C 230.03 176.20 226.64 179.40 226.79 186.05
  C 227.15 202.38 229.51 218.17 232.59 234.18
  C 233.28 237.75 235.92 242.74 235.32 247.04
  C 234.07 256.04 228.86 263.42 218.91 263.08
  A 0.39 0.39 0.0 0 0 218.60 263.72
  C 226.75 273.18 234.23 253.94 240.96 260.22
  Q 241.48 260.70 241.88 260.12
  C 250.31 248.19 240.81 245.58 237.70 235.77
  Q 229.65 210.41 230.52 183.28
  A 1.36 1.35 -7.0 0 1 231.51 182.02
  C 244.09 178.45 271.15 169.19 282.72 175.91
  Q 283.16 176.16 283.20 176.67
  Q 285.99 211.43 281.00 245.81
  C 278.30 264.48 272.16 283.08 265.09 300.54
  C 263.11 305.44 261.27 311.23 258.98 316.49
  C 254.17 327.55 250.47 337.20 246.04 347.49
  C 242.92 354.75 239.75 357.61 232.54 359.96
  Q 221.90 363.44 214.70 364.07
  C 192.27 366.01 168.21 357.58 147.21 349.74
  Q 127.27 342.29 109.99 330.09
  C 95.23 319.68 89.06 306.97 81.01 290.78
  Q 80.40 289.56 78.88 290.17
  Q 78.40 290.36 78.50 290.87
  Q 78.75 292.08 79.52 294.06
  Q 92.92 328.57 125.70 344.27
  Q 160.83 361.11 194.58 367.58
  Q 202.83 369.16 209.49 367.99
  Q 211.50 367.64 212.91 368.45
  Q 213.41 368.74 213.32 369.31
  Q 210.81 384.28 208.25 404.75
  Q 207.98 406.96 208.44 408.90
  Q 208.68 409.91 209.13 408.98
  Q 210.57 406.02 211.20 402.74
  Q 214.36 386.39 216.86 369.86
  A 2.81 2.81 0.0 0 1 219.30 367.49
  Q 227.99 366.42 236.37 362.33
  C 243.52 358.85 247.90 352.77 250.92 345.68
  Q 257.25 330.83 263.10 315.84
  A 1.52 1.51 -66.9 0 1 265.15 315.01
  Q 278.98 321.43 291.08 330.69
  Q 291.95 331.35 291.45 332.31
  C 285.15 344.49 278.63 359.70 268.92 369.66
  C 262.82 375.90 254.21 377.92 250.01 386.33
  C 240.78 404.79 230.02 419.22 213.24 431.47
  C 202.52 439.30 191.02 447.34 181.37 456.45
  A 0.42 0.42 0.0 0 0 181.82 457.15
  Q 184.86 455.96 187.52 454.03
  Q 202.79 442.92 218.13 431.94
  Q 225.46 426.70 230.30 420.80
  C 238.43 410.90 246.91 401.61 252.24 389.77
  C 256.39 380.57 265.75 378.06 272.26 371.17
  Q 277.59 365.52 281.80 357.81
  Q 289.41 343.86 296.77 329.79
  Q 297.43 328.54 301.17 325.35
  Q 301.53 325.05 301.99 325.02
  Q 327.20 323.46 347.56 330.17
  C 356.98 333.27 373.17 341.79 379.08 351.93
  Q 379.34 352.37 379.28 352.87
  C 379.11 354.41 379.05 356.07 378.68 357.56
  Q 373.62 377.51 368.67 397.48
  C 368.33 398.85 365.55 408.36 368.87 407.39
  A 1.61 1.59 88.8 0 0 369.97 406.23
  C 374.34 388.92 379.75 371.49 382.86 354.22
  A 0.72 0.71 -54.3 0 1 384.19 354.00
  Q 388.39 361.81 389.76 370.46
  C 390.63 375.92 392.84 381.39 392.59 387.01
  C 391.69 407.54 394.02 424.88 389.14 444.35
  C 388.86 445.46 389.03 446.92 388.99 448.09
  Q 388.97 448.71 389.58 448.78
  L 391.91 449.06
  Q 392.51 449.13 392.62 448.54
  Q 393.53 443.57 394.26 441.51
  C 400.61 423.57 407.00 405.21 410.88 386.58
  C 416.37 360.21 405.59 337.82 392.75 314.65
  C 391.90 313.11 390.22 311.63 389.27 309.88
  Q 389.01 309.39 389.23 308.89
  L 395.30 294.72
  A 0.61 0.60 -64.6 0 1 396.13 294.42
  Q 411.78 302.34 426.33 308.65
  C 428.39 309.55 434.81 313.20 434.27 316.00
  C 432.28 326.38 428.90 344.33 439.59 350.91
  Q 458.38 362.47 477.05 374.21
  Q 478.69 375.24 480.18 376.51
  Q 480.40 376.70 480.65 376.54
  L 481.00 376.31"
/>
<path stroke="#848382" vector-effect="non-scaling-stroke" d="
  M 202.06 172.19
  C 191.61 170.41 180.01 167.17 170.52 166.86
  Q 152.45 166.27 135.54 173.24
  C 134.29 173.76 133.08 174.93 134.21 176.29
  A 1.69 1.69 0.0 0 0 136.01 176.83
  Q 160.61 169.37 185.01 175.97
  C 190.28 177.40 197.90 178.46 202.25 175.25
  C 203.43 174.38 203.77 172.48 202.06 172.19"
/>
<path stroke="#848382" vector-effect="non-scaling-stroke" d="
  M 207.29 186.89
  C 206.36 184.06 203.28 179.37 199.82 179.49
  Q 199.32 179.50 199.21 179.99
  C 198.91 181.30 204.39 186.67 205.22 187.77
  Q 205.96 188.76 207.09 187.69
  Q 207.44 187.35 207.29 186.89"
/>
<path stroke="#848382" vector-effect="non-scaling-stroke" d="
  M 176.94 186.37
  C 180.26 186.55 184.18 187.57 187.82 188.00
  A 0.60 0.60 0.0 0 0 188.49 187.39
  C 188.46 185.79 187.33 184.95 185.74 184.88
  Q 168.02 184.08 162.24 184.51
  Q 155.16 185.03 145.97 189.20
  Q 145.39 189.47 146.02 189.36
  C 149.32 188.79 152.23 187.85 155.55 187.65
  C 162.32 187.25 169.48 185.97 176.94 186.37"
/>
<path stroke="#848382" vector-effect="non-scaling-stroke" d="
  M 151.87 199.43
  L 146.14 195.98
  A 1.41 1.41 0.0 0 1 146.45 193.43
  Q 150.14 192.29 153.89 192.72
  Q 154.42 192.78 154.92 192.60
  Q 157.65 191.57 160.42 192.38
  Q 160.99 192.55 161.08 193.15
  Q 161.75 198.13 165.12 201.92
  Q 165.48 202.32 166.01 202.27
  Q 169.69 201.95 177.29 201.60
  Q 181.40 201.42 182.46 198.14
  C 183.47 195.06 184.16 193.82 185.39 191.51
  A 1.12 1.12 0.0 0 0 184.52 189.87
  C 172.92 188.60 160.47 188.76 149.21 191.98
  Q 145.46 193.06 141.55 193.48
  Q 141.07 193.53 140.83 193.95
  C 138.63 197.79 151.51 201.77 152.16 200.40
  A 0.75 0.75 0.0 0 0 151.87 199.43"
/>
<path stroke="#848382" vector-effect="non-scaling-stroke" d="
  M 236.46 194.54
  C 236.88 197.69 240.55 200.26 243.55 200.35
  Q 244.54 200.38 243.91 199.62
  L 240.79 195.82
  A 1.12 1.12 0.0 0 1 241.47 194.01
  L 254.52 191.77
  A 0.77 0.77 0.0 0 1 255.42 192.50
  Q 255.59 197.35 257.67 201.78
  Q 257.88 202.23 258.37 202.30
  C 261.32 202.68 271.22 202.45 272.29 198.52
  Q 273.54 193.94 277.81 192.03
  Q 278.31 191.81 278.19 191.28
  L 277.97 190.30
  Q 277.85 189.78 277.32 189.78
  C 273.44 189.78 269.45 188.91 265.89 189.04
  Q 251.24 189.58 237.01 193.69
  Q 236.37 193.88 236.46 194.54"
/>
<path stroke="#848382" vector-effect="non-scaling-stroke" d="
  M 61.12 216.74
  C 63.49 219.97 64.11 222.63 63.06 226.79
  C 61.74 232.00 59.97 239.71 66.00 242.34
  Q 66.58 242.59 66.51 241.97
  C 66.23 239.44 64.99 237.06 64.98 234.64
  C 64.95 229.76 68.67 222.14 65.78 217.72
  C 61.81 211.65 52.28 198.93 45.09 197.11
  Q 44.56 196.98 44.16 197.36
  Q 40.13 201.18 39.27 206.74
  A 0.26 0.26 0.0 0 0 39.74 206.93
  L 43.78 201.55
  A 1.92 1.92 0.0 0 1 46.43 201.13
  Q 52.37 205.28 57.06 210.48
  Q 59.22 212.88 56.72 214.93
  C 53.75 217.36 47.80 223.85 46.95 228.40
  C 45.96 233.78 51.90 239.96 55.98 242.57
  A 0.41 0.41 0.0 0 0 56.55 242.01
  C 54.64 238.83 50.88 234.64 50.23 231.56
  C 49.04 225.89 56.15 219.36 60.30 216.59
  A 0.60 0.60 0.0 0 1 61.12 216.74"
/>
<path stroke="#848382" vector-effect="non-scaling-stroke" d="
  M 87.6330 197.7441
  A 7.44 1.65 -36.6 0 0 80.6762 200.8554
  A 7.44 1.65 -36.6 0 0 75.6870 206.6159
  A 7.44 1.65 -36.6 0 0 82.6438 203.5046
  A 7.44 1.65 -36.6 0 0 87.6330 197.7441"
/>
<path stroke="#848382" vector-effect="non-scaling-stroke" d="
  M 205.56 255.44
  C 200.69 252.15 196.98 255.64 193.46 258.83
  Q 193.06 259.20 192.62 258.88
  C 188.41 255.80 192.18 248.59 190.42 247.60
  Q 189.98 247.35 189.65 247.73
  Q 183.63 254.63 189.62 261.42
  C 192.36 264.52 196.57 260.58 198.97 259.15
  C 202.96 256.78 207.75 259.01 210.65 262.02
  Q 211.10 262.48 210.81 261.91
  Q 208.62 257.50 205.56 255.44"
/>
<path stroke="#848382" vector-effect="non-scaling-stroke" d="
  M 216.00 286.89
  A 0.54 0.54 0.0 0 0 216.75 286.26
  L 215.61 281.85
  Q 215.47 281.35 215.64 280.85
  L 218.32 272.64
  Q 218.51 272.09 218.04 271.73
  C 214.26 268.80 208.89 283.73 216.00 286.89"
/>
<path stroke="#848382" vector-effect="non-scaling-stroke" d="
  M 213.33 292.61
  L 211.10 291.69
  Q 210.51 291.45 209.91 291.64
  Q 197.76 295.48 185.48 298.95
  Q 179.26 300.71 173.68 304.03
  Q 173.04 304.41 173.79 304.48
  Q 176.08 304.66 178.74 303.97
  Q 197.10 299.23 212.34 294.07
  Q 212.66 293.96 212.90 293.72
  L 213.45 293.18
  A 0.35 0.35 0.0 0 0 213.33 292.61"
/>
<path stroke="#848382" vector-effect="non-scaling-stroke" d="
  M 241.75 297.66
  A 0.45 0.45 0.0 0 1 241.54 298.50
  L 228.23 298.74
  A 0.48 0.48 0.0 0 0 228.08 299.67
  Q 237.96 303.06 248.26 301.34
  A 1.24 1.24 0.0 0 0 248.84 299.16
  Q 243.78 295.00 237.24 292.27
  C 234.71 291.22 229.57 291.59 229.58 295.23
  Q 229.58 296.04 230.36 295.84
  L 233.79 294.94
  Q 234.24 294.82 234.69 294.92
  Q 238.42 295.79 241.75 297.66"
/>
<path stroke="#848382" vector-effect="non-scaling-stroke" d="
  M 210.08 300.26
  C 211.61 300.56 215.86 301.16 215.14 298.25
  Q 215.00 297.68 214.42 297.56
  Q 211.27 296.95 209.78 299.61
  A 0.44 0.44 0.0 0 0 210.08 300.26"
/>
<path stroke="#848382" vector-effect="non-scaling-stroke" d="
  M 193.93 312.07
  Q 210.81 318.77 228.34 314.86
  Q 229.37 314.63 230.20 313.93
  A 0.79 0.79 0.0 0 0 229.92 312.58
  C 225.02 311.07 220.54 312.07 215.67 312.33
  C 208.68 312.71 201.99 310.83 195.30 309.20
  C 193.83 308.84 192.45 309.53 193.17 311.31
  A 1.38 1.38 0.0 0 0 193.93 312.07"
/>
<path stroke="#848382" vector-effect="non-scaling-stroke" d="
  M 217.1340 352.6599
  A 5.82 1.58 118.6 0 0 221.3072 348.3063
  A 5.82 1.58 118.6 0 0 222.7060 342.4401
  A 5.82 1.58 118.6 0 0 218.5328 346.7937
  A 5.82 1.58 118.6 0 0 217.1340 352.6599"
/>
<path stroke="#848382" vector-effect="non-scaling-stroke" d="
  M 278.60 377.46
  C 281.00 377.98 283.17 378.63 285.61 378.85
  Q 306.95 380.80 324.87 392.50
  Q 325.25 392.75 325.72 392.75
  L 326.57 392.75
  Q 327.29 392.75 327.23 392.03
  C 327.00 389.34 322.21 386.40 319.75 385.05
  C 307.57 378.40 292.45 373.62 278.59 376.67
  A 0.41 0.40 44.6 0 0 278.60 377.46"
/>
<path stroke="#848382" vector-effect="non-scaling-stroke" d="
  M 481.00 252.56
  L 480.72 255.02
  Q 480.65 255.60 480.34 255.11
  Q 480.19 254.86 480.13 254.53
  Q 480.04 253.98 479.56 253.70
  L 468.33 247.15
  Q 467.79 246.84 467.99 247.42
  L 470.11 253.93
  Q 470.41 254.86 469.81 254.09
  Q 468.04 251.84 467.53 250.20
  C 462.84 235.13 458.65 216.63 453.41 200.24
  Q 444.91 173.67 442.29 164.24
  C 440.41 157.48 434.75 145.40 427.26 143.98
  C 417.22 142.07 406.97 142.42 394.86 140.63
  C 392.31 140.25 389.68 140.68 387.10 140.28
  C 373.61 138.20 361.90 136.27 346.70 136.02
  C 340.48 135.92 337.60 137.33 333.19 141.20
  Q 327.59 146.10 322.23 151.39
  A 0.84 0.84 0.0 0 0 322.79 152.82
  C 331.03 153.05 335.74 157.33 341.83 163.49
  Q 342.23 163.89 342.63 163.50
  Q 344.00 162.19 345.14 160.65
  Q 350.62 153.26 357.29 146.97
  C 366.22 138.55 376.86 141.43 389.04 142.66
  A 0.67 0.67 0.0 0 1 389.08 143.99
  Q 380.78 145.32 372.48 144.40
  C 360.88 143.11 351.51 158.34 345.01 165.60
  A 0.58 0.57 -63.2 0 0 345.32 166.55
  C 353.23 168.18 356.66 173.14 362.48 177.94
  Q 362.96 178.33 363.41 177.90
  Q 364.62 176.73 365.33 174.81
  C 370.35 161.35 379.18 160.67 392.09 156.84
  C 398.46 154.95 406.81 151.69 414.42 149.88
  A 0.30 0.29 22.9 0 1 414.64 150.42
  C 403.40 157.00 391.91 160.35 379.67 164.26
  C 371.94 166.73 370.38 172.18 366.92 180.08
  C 365.06 184.32 375.13 194.29 377.85 196.60
  Q 378.25 196.94 378.70 196.66
  Q 386.33 191.93 390.79 184.16
  Q 391.02 183.77 390.96 183.31
  L 390.38 178.66
  Q 390.31 178.08 390.88 177.93
  C 395.59 176.68 395.22 183.60 401.25 181.39
  Q 408.61 178.68 414.01 173.00
  Q 415.22 171.72 416.92 171.49
  Q 417.48 171.41 417.49 171.98
  C 417.58 176.52 407.78 182.84 404.03 184.64
  A 1.52 1.51 53.6 0 0 403.66 187.12
  C 406.26 189.51 412.26 189.58 413.72 191.55
  Q 414.04 192.00 413.50 192.06
  C 407.95 192.67 402.51 191.93 397.05 192.64
  C 390.34 193.52 395.90 202.95 397.82 205.51
  C 402.54 211.80 407.66 218.00 408.20 223.81
  C 409.28 235.57 406.73 249.54 405.55 261.43
  C 405.35 263.47 404.62 266.46 404.76 269.20
  Q 404.79 269.71 405.13 270.09
  C 407.87 273.17 411.49 276.47 415.84 276.81
  Q 422.41 277.31 437.24 278.82
  Q 446.83 279.79 453.86 285.12
  Q 454.97 285.96 453.65 285.49
  C 448.94 283.80 444.33 281.25 439.32 280.87
  C 431.69 280.29 424.05 280.47 416.43 279.96
  C 411.36 279.62 407.78 277.39 404.42 273.95
  A 0.62 0.62 0.0 0 0 403.40 274.15
  L 397.19 289.94
  A 1.24 1.23 -65.1 0 0 397.75 291.48
  Q 409.03 297.60 420.99 303.06
  C 432.36 308.25 441.49 314.25 451.11 321.29
  Q 451.56 321.61 451.81 321.12
  Q 455.75 313.62 460.76 306.80
  C 468.16 296.73 473.35 286.14 477.61 274.42
  C 479.24 269.93 479.65 265.07 480.22 260.29
  Q 480.38 259.00 480.47 260.30
  L 481.00 268.31"
/>
<path stroke="#848382" vector-effect="non-scaling-stroke" d="
  M 481.00 271.81
  C 478.68 281.38 475.07 289.68 470.21 298.22
  C 466.12 305.40 458.73 314.38 454.34 322.58
  C 449.09 332.36 445.23 341.45 440.04 346.08
  A 1.00 0.99 -48.9 0 0 440.14 347.64
  Q 456.77 358.95 473.99 368.71
  Q 476.12 369.92 481.00 373.81"
/>
<path stroke="#848382" vector-effect="non-scaling-stroke" d="
  M 96.06 115.27
  C 97.87 111.99 103.32 109.75 107.93 107.46
  C 117.98 102.47 127.10 96.22 137.35 91.39
  A 0.71 0.71 0.0 0 0 137.28 90.08
  C 135.90 89.61 129.85 87.59 129.57 85.96
  A 1.10 1.09 4.3 0 1 131.00 84.74
  C 143.19 88.76 165.91 93.18 177.23 86.87
  C 186.61 81.65 194.72 79.15 205.52 80.34
  Q 219.76 81.91 232.07 89.39
  C 235.91 91.72 238.44 92.79 242.13 90.10
  C 253.29 81.96 257.38 77.50 270.23 87.08
  C 280.77 94.94 284.57 108.93 284.20 121.56
  C 284.03 127.52 284.81 132.91 285.27 138.78
  Q 285.44 140.85 287.16 140.98
  A 1.70 1.70 0.0 0 0 288.91 139.80
  C 291.03 133.18 294.68 125.25 294.91 118.55
  Q 295.55 100.16 284.71 85.62
  C 279.30 78.34 275.44 70.97 271.12 63.28
  C 269.21 59.88 266.50 56.35 263.21 55.26
  C 243.28 48.69 220.76 46.74 201.05 38.48
  C 186.03 32.20 171.41 30.31 157.25 29.75
  Q 147.16 29.35 141.00 30.51
  C 134.12 31.80 126.84 32.67 120.48 34.81
  C 101.27 41.26 87.11 52.19 72.07 66.34
  C 63.68 74.23 58.70 80.77 54.18 90.68
  C 44.52 111.87 38.03 135.68 42.19 158.71
  Q 42.57 160.82 43.34 162.78
  A 0.58 0.57 -26.8 0 0 44.18 163.05
  Q 57.93 154.15 71.98 145.80
  C 77.63 142.45 84.11 139.52 90.21 136.29
  Q 90.67 136.05 90.94 135.61
  Q 98.67 122.99 108.52 111.95
  A 0.68 0.68 0.0 0 0 107.68 110.91
  Q 102.29 113.98 96.35 115.65
  Q 95.75 115.82 96.06 115.27"
/>
<path stroke="#848382" vector-effect="non-scaling-stroke" d="
  M 174.92 92.11
  C 165.26 95.26 154.24 93.34 144.26 92.39
  Q 143.75 92.34 143.30 92.56
  Q 128.69 99.56 114.71 107.74
  C 112.45 109.06 111.38 112.60 109.80 114.64
  Q 102.13 124.54 95.02 134.37
  A 0.39 0.39 0.0 0 0 95.47 134.96
  Q 101.64 132.59 107.60 131.50
  Q 145.84 124.54 184.53 121.06
  C 217.97 118.05 248.18 124.36 279.13 128.87
  Q 279.69 128.95 279.92 128.43
  Q 280.84 126.36 280.73 123.74
  C 280.07 108.07 278.01 94.38 262.75 86.53
  C 254.34 82.20 248.94 90.09 242.93 94.19
  C 238.27 97.38 232.58 94.01 228.31 91.49
  Q 210.73 81.14 191.49 84.73
  C 185.73 85.81 179.92 90.47 174.92 92.11"
/>
<path stroke="#848382" vector-effect="non-scaling-stroke" d="
  M 312.82 130.04
  C 309.61 133.46 298.20 144.19 297.53 147.22
  Q 297.37 147.90 298.00 147.58
  Q 300.50 146.30 302.55 147.43
  C 308.60 150.78 304.90 156.12 303.47 160.67
  Q 303.32 161.15 303.71 161.44
  L 306.72 163.70
  A 1.34 1.33 37.2 0 0 308.57 163.45
  C 314.84 155.41 333.63 131.27 344.25 131.68
  Q 360.34 132.30 383.99 136.29
  Q 385.37 136.52 390.03 136.14
  Q 391.25 136.04 390.05 135.82
  C 388.42 135.53 386.89 135.39 385.44 134.97
  C 367.26 129.71 349.11 123.54 330.75 119.02
  C 324.25 117.43 316.88 125.69 312.82 130.04"
/>
<path stroke="#7f6e25" vector-effect="non-scaling-stroke" d="
  M 205.31 130.98
  L 204.95 124.12
  A 0.98 0.97 -4.7 0 0 203.86 123.20
  L 195.96 124.12
  Q 195.35 124.19 195.38 124.79
  Q 195.76 132.45 195.76 140.11
  C 195.76 143.17 197.52 142.34 199.60 142.50
  Q 208.25 143.14 216.96 143.55
  Q 217.57 143.58 217.52 142.98
  L 216.14 124.99
  Q 216.08 124.28 215.38 124.18
  L 209.86 123.36
  Q 208.94 123.22 208.91 124.15
  L 208.68 130.56
  Q 208.66 131.13 208.20 131.47
  Q 207.22 132.19 205.73 131.58
  Q 205.33 131.42 205.31 130.98"
/>
<path stroke="#7f6e25" vector-effect="non-scaling-stroke" d="
  M 180.63 132.76
  A 0.79 0.79 0.0 0 1 179.82 131.97
  L 179.85 126.21
  A 0.79 0.79 0.0 0 0 179.06 125.42
  L 171.97 125.37
  A 0.79 0.79 0.0 0 0 171.18 126.18
  L 171.56 141.29
  A 0.79 0.79 0.0 0 0 172.36 142.06
  L 191.54 141.73
  A 0.79 0.79 0.0 0 0 192.31 140.89
  L 191.19 125.13
  A 0.79 0.79 0.0 0 0 190.39 124.40
  L 184.34 124.54
  A 0.79 0.79 0.0 0 0 183.57 125.39
  L 184.07 131.85
  A 0.79 0.79 0.0 0 1 183.30 132.70
  L 180.63 132.76"
/>
<path stroke="#7f6e25" vector-effect="non-scaling-stroke" d="
  M 232.06 134.20
  C 227.91 134.70 228.54 128.42 228.44 125.80
  Q 228.42 125.28 227.91 125.22
  L 223.19 124.65
  A 2.17 2.16 -85.7 0 0 220.77 126.74
  Q 220.53 134.75 221.81 142.72
  A 1.85 1.84 84.1 0 0 223.72 144.28
  Q 231.53 143.94 239.17 145.48
  Q 239.68 145.58 239.73 145.06
  Q 240.29 137.93 239.68 130.79
  C 239.33 126.68 237.23 125.45 233.36 125.77
  A 0.94 0.94 0.0 0 0 232.50 126.71
  L 232.50 133.71
  Q 232.50 134.15 232.06 134.20"
/>
<path stroke="#7f6e25" vector-effect="non-scaling-stroke" d="
  M 159.10 133.61
  A 0.77 0.77 0.0 0 1 158.34 134.46
  L 155.80 134.46
  A 0.77 0.77 0.0 0 1 155.04 133.73
  L 154.81 128.83
  A 0.77 0.77 0.0 0 0 154.00 128.09
  L 147.20 128.38
  A 0.77 0.77 0.0 0 0 146.47 129.18
  L 147.13 143.36
  A 0.77 0.77 0.0 0 0 147.97 144.10
  L 166.95 142.33
  A 0.77 0.77 0.0 0 0 167.64 141.48
  L 166.02 127.36
  A 0.77 0.77 0.0 0 0 165.21 126.68
  L 159.23 127.01
  A 0.77 0.77 0.0 0 0 158.50 127.86
  L 159.10 133.61"
/>
<path stroke="#7f6e25" vector-effect="non-scaling-stroke" d="
  M 252.29 136.51
  L 251.87 129.25
  Q 251.84 128.81 251.43 128.64
  Q 247.86 127.20 244.28 128.76
  A 1.37 1.35 -14.2 0 0 243.47 130.10
  L 244.63 144.66
  A 1.48 1.48 0.0 0 0 245.89 146.01
  L 261.07 148.27
  A 1.67 1.66 7.1 0 0 262.97 146.80
  C 263.51 141.90 262.23 137.01 262.57 131.91
  A 1.04 1.04 0.0 0 0 261.82 130.84
  L 256.43 129.30
  Q 255.66 129.08 255.63 129.87
  L 255.37 136.67
  Q 255.35 137.24 254.78 137.24
  L 253.06 137.24
  Q 252.33 137.24 252.29 136.51"
/>
<path stroke="#7f6e25" vector-effect="non-scaling-stroke" d="
  M 135.97 139.24
  L 133.91 138.52
  Q 133.28 138.29 133.23 137.62
  L 132.83 131.68
  Q 132.79 131.05 132.17 131.14
  L 124.49 132.23
  Q 123.76 132.33 123.76 133.07
  C 123.71 137.63 124.96 141.79 125.32 146.34
  Q 125.36 146.80 125.81 146.73
  L 143.09 144.44
  A 0.85 0.84 78.6 0 0 143.79 143.38
  Q 142.00 136.74 142.79 129.92
  Q 142.85 129.44 142.38 129.34
  Q 139.59 128.78 137.32 130.23
  Q 136.85 130.52 136.87 131.07
  L 137.05 138.46
  A 0.81 0.81 0.0 0 1 135.97 139.24"
/>
<path stroke="#7f6e25" vector-effect="non-scaling-stroke" d="
  M 275.53 141.38
  C 271.73 142.58 272.16 135.36 271.88 133.12
  Q 271.79 132.40 271.07 132.39
  L 267.71 132.36
  Q 267.02 132.35 266.94 133.03
  Q 266.15 139.77 266.62 146.58
  C 266.96 151.47 273.53 151.42 277.33 152.04
  Q 279.04 152.31 279.50 150.64
  C 280.94 145.41 282.37 138.42 279.97 133.10
  Q 279.69 132.49 279.02 132.49
  L 276.23 132.52
  Q 275.69 132.52 275.71 133.06
  L 276.10 140.55
  Q 276.13 141.19 275.53 141.38"
/>
<path stroke="#7f6e25" vector-effect="non-scaling-stroke" d="
  M 110.95 142.93
  A 1.61 1.61 0.0 0 1 109.36 141.37
  L 109.19 136.54
  Q 109.15 135.36 108.00 135.57
  L 99.69 137.05
  A 1.42 1.42 0.0 0 0 98.53 138.41
  C 98.46 142.02 96.41 153.11 102.77 151.74
  Q 111.69 149.83 120.51 147.83
  A 0.99 0.99 0.0 0 0 121.28 146.84
  Q 121.17 141.41 120.93 136.06
  C 120.74 131.74 115.81 133.02 113.19 133.70
  Q 112.69 133.83 112.74 134.34
  C 112.95 136.42 114.45 142.99 110.95 142.93"
/>
<path stroke="#7f6e25" vector-effect="non-scaling-stroke" d="
  M 83.23 151.97
  Q 83.49 148.50 82.18 145.28
  Q 81.91 144.63 81.32 145.00
  L 75.13 148.84
  Q 74.64 149.14 74.70 149.70
  L 75.96 161.84
  A 0.80 0.80 0.0 0 0 77.06 162.50
  C 81.92 160.55 92.05 157.49 95.19 153.55
  Q 95.50 153.16 95.40 152.68
  Q 94.07 146.12 95.01 139.51
  A 0.72 0.71 81.5 0 0 94.00 138.76
  L 87.17 142.00
  A 1.72 1.71 71.8 0 0 86.23 143.87
  L 87.61 150.91
  Q 87.78 151.79 86.91 151.96
  L 83.89 152.55
  Q 83.18 152.68 83.23 151.97"
/>
<path stroke="#848382" vector-effect="non-scaling-stroke" d="
  M 284.34 153.73
  Q 285.35 155.56 286.87 154.95
  A 1.08 1.07 75.2 0 0 287.53 153.80
  L 286.39 146.39
  A 1.20 1.20 0.0 0 0 284.16 145.98
  Q 282.08 149.63 284.34 153.73"
/>
<path stroke="#848382" vector-effect="non-scaling-stroke" d="
  M 296.00 150.90
  C 293.93 152.48 291.97 154.76 291.15 157.15
  Q 290.96 157.72 291.50 157.99
  Q 297.40 160.92 301.97 157.18
  C 306.60 153.37 300.35 147.56 296.00 150.90"
/>
<path stroke="#7f6e25" vector-effect="non-scaling-stroke" d="
  M 65.85 161.89
  L 63.86 161.21
  Q 63.36 161.03 63.21 160.52
  L 62.44 157.74
  A 1.07 1.06 -16.1 0 0 61.11 157.01
  Q 57.58 158.06 55.60 161.08
  Q 55.33 161.49 55.38 161.99
  L 56.44 173.30
  A 0.60 0.60 0.0 0 0 57.35 173.76
  L 72.59 164.40
  Q 73.11 164.09 72.97 163.50
  Q 71.59 157.65 72.07 151.65
  Q 72.15 150.75 71.36 151.19
  L 66.75 153.74
  Q 66.19 154.05 66.22 154.68
  L 66.58 161.34
  Q 66.62 162.16 65.85 161.89"
/>
<path stroke="#848382" vector-effect="non-scaling-stroke" d="
  M 315.69 231.99
  Q 313.64 217.08 313.19 202.05
  C 312.78 188.35 312.30 174.59 302.67 164.56
  Q 300.83 162.65 300.72 165.45
  C 300.59 168.55 303.49 170.55 299.99 173.52
  Q 295.83 177.04 290.53 178.18
  A 1.57 1.55 -7.3 0 0 289.30 179.76
  Q 289.73 192.23 289.76 204.67
  C 289.80 216.61 287.53 228.51 286.89 240.16
  C 286.38 249.42 285.57 259.27 288.04 268.27
  C 290.93 278.83 299.77 290.43 306.59 299.43
  C 311.06 305.33 306.34 314.00 304.53 320.20
  Q 304.36 320.79 304.97 320.78
  Q 323.09 320.49 340.62 324.47
  C 352.31 327.12 363.78 333.74 373.95 339.99
  A 0.42 0.42 0.0 0 0 374.58 339.71
  Q 376.80 327.49 381.88 316.41
  Q 391.20 296.10 399.02 275.22
  Q 400.48 271.31 400.95 267.05
  Q 402.87 249.66 404.61 232.27
  C 405.32 225.23 402.71 212.44 393.81 211.50
  C 388.26 210.92 385.30 209.97 381.43 205.82
  Q 370.83 194.44 361.46 182.05
  C 360.10 180.25 351.14 171.09 347.10 170.55
  A 1.41 1.41 0.0 0 0 345.57 172.37
  C 349.60 185.24 354.57 196.39 360.02 209.08
  A 0.57 0.57 0.0 0 1 359.06 209.67
  C 349.99 198.71 346.28 186.35 340.43 170.00
  Q 336.64 159.39 326.30 156.40
  C 319.11 154.31 314.21 161.64 311.11 166.83
  A 2.48 2.46 47.6 0 0 311.01 169.17
  C 314.63 176.68 315.27 183.37 316.36 191.45
  C 317.81 202.11 316.99 212.02 316.75 225.25
  Q 316.67 229.49 316.28 232.00
  Q 315.97 234.01 315.69 231.99"
/>
<path stroke="#848382" vector-effect="non-scaling-stroke" d="
  M 294.77 163.07
  C 289.51 162.95 288.98 169.85 289.40 174.11
  Q 289.45 174.63 289.97 174.72
  C 292.87 175.17 299.49 173.61 298.34 169.59
  C 297.96 168.25 296.57 163.11 294.77 163.07"
/>
<path stroke="#7f6e25" vector-effect="non-scaling-stroke" d="
  M 50.53 163.32
  C 42.57 166.48 41.23 172.58 43.61 180.26
  Q 43.78 180.81 44.28 180.53
  L 53.12 175.63
  Q 53.68 175.31 53.47 174.71
  Q 51.64 169.51 51.55 164.00
  A 0.75 0.75 0.0 0 0 50.53 163.32"
/>
<path stroke="#848382" vector-effect="non-scaling-stroke" d="
  M 384.31 196.99
  Q 385.41 199.72 388.35 199.25
  A 1.37 1.36 -4.3 0 0 389.49 197.93
  Q 389.52 194.70 385.78 194.77
  A 1.62 1.62 0.0 0 0 384.31 196.99"
/>
<path stroke="#848382" vector-effect="non-scaling-stroke" d="
  M 265.98 311.03
  Q 280.31 318.88 293.49 328.52
  Q 293.91 328.83 294.23 328.42
  Q 295.93 326.21 297.53 323.94
  C 298.61 322.41 301.44 320.19 301.80 318.53
  C 302.90 313.48 306.76 304.45 303.28 299.99
  C 295.97 290.61 290.13 282.77 285.81 272.68
  C 283.45 267.18 283.66 260.87 283.50 254.96
  Q 283.34 249.14 282.90 254.87
  C 282.73 257.20 282.50 258.96 282.05 260.85
  C 277.49 280.13 271.47 293.60 265.61 310.05
  Q 265.38 310.69 265.98 311.03"
/>
<path stroke="#848382" vector-effect="non-scaling-stroke" d="
  M 437.71 343.36
  A 0.89 0.89 0.0 0 0 439.14 343.21
  L 449.79 325.05
  A 0.94 0.94 0.0 0 0 449.50 323.80
  L 436.87 315.28
  Q 436.02 314.71 436.01 315.73
  C 435.98 318.48 436.63 321.00 436.32 323.58
  C 435.76 328.19 434.47 339.83 437.71 343.36"
/>
<path stroke="#7f6e25" vector-effect="non-scaling-stroke" d="
  M 389.07 315.79
  A 0.74 0.74 0.0 0 0 387.81 315.69
  C 383.93 320.99 379.60 328.84 380.85 335.71
  A 1.10 1.09 69.7 0 0 382.48 336.46
  L 394.02 329.70
  A 1.91 1.90 61.6 0 0 394.76 327.20
  L 389.07 315.79"
/>
<path stroke="#7f6e25" vector-effect="non-scaling-stroke" d="
  M 392.30 358.65
  Q 399.65 356.01 404.95 350.31
  Q 405.28 349.96 405.11 349.51
  L 403.38 344.92
  A 1.64 1.64 0.0 0 0 400.77 344.26
  L 397.17 347.38
  A 1.52 1.52 0.0 0 1 394.72 346.68
  C 393.54 342.88 398.03 341.30 400.64 339.66
  Q 401.16 339.33 400.82 338.81
  L 397.53 333.82
  Q 397.15 333.25 396.50 333.48
  C 393.62 334.53 381.36 339.33 383.34 343.67
  C 384.52 346.26 387.79 354.54 391.18 358.36
  Q 391.65 358.88 392.30 358.65"
/>
<path stroke="#848382" vector-effect="non-scaling-stroke" d="
  M 380.2113 345.9064
  A 2.56 1.25 52.7 0 0 379.6543 343.1125
  A 2.56 1.25 52.7 0 0 377.1087 341.8336
  A 2.56 1.25 52.7 0 0 377.6657 344.6275
  A 2.56 1.25 52.7 0 0 380.2113 345.9064"
/>
<path stroke="#7f6e25" vector-effect="non-scaling-stroke" d="
  M 401.37 371.81
  C 400.65 369.12 405.77 365.65 407.13 364.53
  Q 407.61 364.13 407.56 363.51
  L 407.03 357.03
  Q 406.87 355.03 405.19 356.12
  L 393.58 363.64
  Q 392.92 364.07 393.09 364.83
  Q 394.50 371.15 396.07 377.54
  C 396.73 380.26 396.35 382.73 396.22 385.49
  A 0.95 0.94 71.0 0 0 397.78 386.25
  C 403.68 381.14 410.05 378.66 409.07 369.23
  A 0.47 0.47 0.0 0 0 408.29 368.92
  Q 405.57 371.35 402.09 372.24
  Q 401.52 372.38 401.37 371.81"
/>
<path stroke="#7f6e25" vector-effect="non-scaling-stroke" d="
  M 401.44 395.93
  L 401.86 395.52
  Q 402.16 395.22 402.24 394.80
  Q 402.65 392.80 404.68 392.28
  Q 405.33 392.12 405.53 391.48
  L 407.26 385.96
  A 1.00 0.99 -10.8 0 0 405.68 384.89
  L 397.13 391.85
  Q 396.67 392.22 396.69 392.81
  L 396.92 401.47
  Q 396.94 402.24 397.71 402.30
  L 400.77 402.55
  Q 401.28 402.59 401.64 402.23
  C 402.92 400.94 407.19 396.33 401.75 396.62
  A 0.41 0.40 -69.3 0 1 401.44 395.93"
/>
<path stroke="#848382" vector-effect="non-scaling-stroke" d="
  M 399.91 407.40
  C 397.38 406.48 396.01 409.59 396.34 411.68
  C 396.62 413.39 395.44 421.11 395.89 421.44
  Q 396.44 421.84 396.64 421.20
  L 400.63 408.86
  A 1.18 1.17 18.9 0 0 399.91 407.40"
/>
<path stroke="#848382" vector-effect="non-scaling-stroke" d="
  M 301.40 189.27
  C 301.56 186.84 293.68 188.99 292.42 189.58
  Q 290.95 190.26 292.04 191.46
  C 293.23 192.76 299.17 190.39 300.82 189.97
  A 0.78 0.76 85.5 0 0 301.40 189.27"
/>
<path stroke="#848382" vector-effect="non-scaling-stroke" d="
  M 395.94 220.30
  C 397.47 227.67 397.29 233.58 394.95 240.72
  Q 394.71 241.44 395.10 240.79
  C 399.03 234.38 403.35 226.58 396.29 220.10
  Q 395.81 219.66 395.94 220.30"
/>
<path stroke="#848382" vector-effect="non-scaling-stroke" d="
  M 369.4765 243.5174
  A 12.24 1.44 69.4 0 0 366.5179 231.5533
  A 12.24 1.44 69.4 0 0 360.8635 220.6026
  A 12.24 1.44 69.4 0 0 363.8221 232.5667
  A 12.24 1.44 69.4 0 0 369.4765 243.5174"
/>
<path stroke="#848382" vector-effect="non-scaling-stroke" d="
  M 178.71 193.35
  A 1.49 1.49 0.0 0 0 176.40 193.43
  Q 174.54 195.90 174.75 198.95
  Q 174.79 199.48 175.32 199.48
  C 178.50 199.50 180.76 195.70 178.71 193.35"
/>
<path stroke="#848382" vector-effect="non-scaling-stroke" d="
  M 265.90 196.17
  C 266.38 199.96 270.94 198.10 270.64 194.64
  Q 270.57 193.83 269.80 194.10
  L 266.43 195.31
  Q 265.82 195.53 265.90 196.17"
/>
</g>
<path fill="#ffffff" d="
  M 0.00 0.00
  L 481.00 0.00
  L 481.01 251.54
  C 472.70 247.29 469.01 245.02 466.50 235.50
  C 460.01 210.81 453.03 188.33 446.34 164.93
  C 442.93 153.01 436.32 140.88 422.25 139.63
  C 411.97 138.71 402.75 137.47 392.53 134.21
  Q 365.50 125.59 338.40 117.23
  C 330.28 114.73 324.76 113.92 318.67 119.67
  C 309.68 128.15 298.73 138.40 292.77 149.28
  A 1.11 1.11 0.0 0 1 290.88 149.38
  C 289.23 146.99 295.01 132.96 296.14 129.78
  Q 298.51 123.11 298.76 118.96
  C 299.44 107.46 294.38 93.23 287.60 84.00
  Q 281.77 76.06 277.39 67.23
  C 273.32 59.01 270.55 53.28 261.01 50.71
  Q 248.02 47.21 238.53 45.23
  C 223.48 42.09 210.63 37.68 196.72 32.98
  C 161.58 21.13 125.94 24.09 94.62 43.69
  C 76.96 54.74 59.88 71.46 50.98 90.46
  Q 40.60 112.61 37.29 135.51
  C 36.26 142.59 36.15 157.29 40.85 165.48
  Q 41.17 166.04 40.79 166.56
  L 38.74 169.38
  Q 38.47 169.76 38.47 170.23
  C 38.55 176.68 41.31 184.29 38.19 189.94
  Q 34.85 195.99 31.68 202.12
  C 28.40 208.46 28.75 214.27 30.51 221.49
  C 32.55 229.86 35.61 243.18 41.13 249.80
  Q 51.85 262.67 61.72 275.69
  A 0.92 0.91 -44.7 0 1 61.71 276.81
  Q 53.19 287.74 44.33 297.12
  C 36.30 305.62 33.45 311.01 31.76 322.25
  Q 29.84 334.98 30.91 343.94
  Q 31.02 344.82 31.21 343.95
  Q 33.83 332.39 35.80 320.70
  C 38.06 307.29 47.95 298.21 56.80 288.67
  A 0.47 0.47 0.0 0 1 57.60 289.10
  C 52.55 309.51 59.88 333.18 71.29 349.97
  C 78.85 361.11 92.06 373.84 102.19 382.80
  Q 121.11 399.55 134.42 412.39
  C 142.90 420.58 152.23 431.70 161.53 440.97
  A 0.17 0.17 0.0 0 0 161.79 440.75
  C 151.34 425.00 139.64 412.20 125.43 399.19
  C 109.88 384.94 93.62 371.11 80.08 355.41
  C 66.55 339.73 58.99 318.17 60.58 297.33
  C 60.94 292.60 60.24 285.71 63.14 281.91
  C 67.86 275.74 77.23 279.09 77.45 268.57
  Q 77.65 258.98 75.78 249.53
  Q 75.65 248.91 75.47 249.52
  Q 73.12 257.26 73.51 265.35
  C 73.62 267.80 73.55 273.08 71.08 274.32
  C 67.46 276.14 64.82 274.83 62.48 271.66
  Q 53.83 259.92 44.57 248.66
  C 38.52 241.31 36.34 229.20 33.77 220.07
  C 33.01 217.39 33.24 214.42 33.10 211.61
  C 32.69 203.44 39.31 194.18 45.14 189.11
  A 1.66 1.64 30.0 0 1 46.55 188.74
  Q 53.00 190.04 58.68 193.31
  A 0.49 0.49 0.0 0 0 59.37 192.68
  C 57.33 188.27 52.70 186.69 47.56 185.02
  Q 46.65 184.73 47.39 184.13
  Q 48.32 183.38 50.20 182.20
  Q 68.02 171.12 87.17 162.25
  A 0.45 0.44 80.1 0 1 87.80 162.70
  C 86.94 172.03 88.56 188.79 79.56 194.84
  C 77.88 195.97 68.70 201.32 68.79 202.98
  A 0.88 0.87 75.3 0 0 70.05 203.72
  C 80.11 198.72 90.54 192.28 90.74 179.58
  Q 90.88 170.66 91.55 161.65
  Q 91.59 161.14 91.96 160.79
  Q 94.55 158.35 98.02 157.29
  C 108.18 154.19 118.00 151.86 128.81 150.39
  C 161.02 146.01 193.16 145.63 225.56 147.99
  Q 251.33 149.87 278.98 157.31
  Q 280.63 157.76 281.62 158.29
  Q 282.03 158.52 282.06 158.99
  L 282.80 171.33
  A 0.58 0.58 0.0 0 1 281.88 171.84
  C 279.89 170.41 278.26 169.03 275.77 168.64
  C 263.06 166.70 249.32 170.59 236.30 174.37
  C 230.03 176.20 226.64 179.40 226.79 186.05
  C 227.15 202.38 229.51 218.17 232.59 234.18
  C 233.28 237.75 235.92 242.74 235.32 247.04
  C 234.07 256.04 228.86 263.42 218.91 263.08
  A 0.39 0.39 0.0 0 0 218.60 263.72
  C 226.75 273.18 234.23 253.94 240.96 260.22
  Q 241.48 260.70 241.88 260.12
  C 250.31 248.19 240.81 245.58 237.70 235.77
  Q 229.65 210.41 230.52 183.28
  A 1.36 1.35 -7.0 0 1 231.51 182.02
  C 244.09 178.45 271.15 169.19 282.72 175.91
  Q 283.16 176.16 283.20 176.67
  Q 285.99 211.43 281.00 245.81
  C 278.30 264.48 272.16 283.08 265.09 300.54
  C 263.11 305.44 261.27 311.23 258.98 316.49
  C 254.17 327.55 250.47 337.20 246.04 347.49
  C 242.92 354.75 239.75 357.61 232.54 359.96
  Q 221.90 363.44 214.70 364.07
  C 192.27 366.01 168.21 357.58 147.21 349.74
  Q 127.27 342.29 109.99 330.09
  C 95.23 319.68 89.06 306.97 81.01 290.78
  Q 80.40 289.56 78.88 290.17
  Q 78.40 290.36 78.50 290.87
  Q 78.75 292.08 79.52 294.06
  Q 92.92 328.57 125.70 344.27
  Q 160.83 361.11 194.58 367.58
  Q 202.83 369.16 209.49 367.99
  Q 211.50 367.64 212.91 368.45
  Q 213.41 368.74 213.32 369.31
  Q 210.81 384.28 208.25 404.75
  Q 207.98 406.96 208.44 408.90
  Q 208.68 409.91 209.13 408.98
  Q 210.57 406.02 211.20 402.74
  Q 214.36 386.39 216.86 369.86
  A 2.81 2.81 0.0 0 1 219.30 367.49
  Q 227.99 366.42 236.37 362.33
  C 243.52 358.85 247.90 352.77 250.92 345.68
  Q 257.25 330.83 263.10 315.84
  A 1.52 1.51 -66.9 0 1 265.15 315.01
  Q 278.98 321.43 291.08 330.69
  Q 291.95 331.35 291.45 332.31
  C 285.15 344.49 278.63 359.70 268.92 369.66
  C 262.82 375.90 254.21 377.92 250.01 386.33
  C 240.78 404.79 230.02 419.22 213.24 431.47
  C 202.52 439.30 191.02 447.34 181.37 456.45
  A 0.42 0.42 0.0 0 0 181.82 457.15
  Q 184.86 455.96 187.52 454.03
  Q 202.79 442.92 218.13 431.94
  Q 225.46 426.70 230.30 420.80
  C 238.43 410.90 246.91 401.61 252.24 389.77
  C 256.39 380.57 265.75 378.06 272.26 371.17
  Q 277.59 365.52 281.80 357.81
  Q 289.41 343.86 296.77 329.79
  Q 297.43 328.54 301.17 325.35
  Q 301.53 325.05 301.99 325.02
  Q 327.20 323.46 347.56 330.17
  C 356.98 333.27 373.17 341.79 379.08 351.93
  Q 379.34 352.37 379.28 352.87
  C 379.11 354.41 379.05 356.07 378.68 357.56
  Q 373.62 377.51 368.67 397.48
  C 368.33 398.85 365.55 408.36 368.87 407.39
  A 1.61 1.59 88.8 0 0 369.97 406.23
  C 374.34 388.92 379.75 371.49 382.86 354.22
  A 0.72 0.71 -54.3 0 1 384.19 354.00
  Q 388.39 361.81 389.76 370.46
  C 390.63 375.92 392.84 381.39 392.59 387.01
  C 391.69 407.54 394.02 424.88 389.14 444.35
  C 388.86 445.46 389.03 446.92 388.99 448.09
  Q 388.97 448.71 389.58 448.78
  L 391.91 449.06
  Q 392.51 449.13 392.62 448.54
  Q 393.53 443.57 394.26 441.51
  C 400.61 423.57 407.00 405.21 410.88 386.58
  C 416.37 360.21 405.59 337.82 392.75 314.65
  C 391.90 313.11 390.22 311.63 389.27 309.88
  Q 389.01 309.39 389.23 308.89
  L 395.30 294.72
  A 0.61 0.60 -64.6 0 1 396.13 294.42
  Q 411.78 302.34 426.33 308.65
  C 428.39 309.55 434.81 313.20 434.27 316.00
  C 432.28 326.38 428.90 344.33 439.59 350.91
  Q 458.38 362.47 477.05 374.21
  Q 478.69 375.24 480.18 376.51
  Q 480.40 376.70 480.65 376.54
  L 481.00 376.31
  L 481.00 461.00
  L 0.00 461.00
  L 0.00 0.00
  Z
  M 202.06 172.19
  C 191.61 170.41 180.01 167.17 170.52 166.86
  Q 152.45 166.27 135.54 173.24
  C 134.29 173.76 133.08 174.93 134.21 176.29
  A 1.69 1.69 0.0 0 0 136.01 176.83
  Q 160.61 169.37 185.01 175.97
  C 190.28 177.40 197.90 178.46 202.25 175.25
  C 203.43 174.38 203.77 172.48 202.06 172.19
  Z
  M 207.29 186.89
  C 206.36 184.06 203.28 179.37 199.82 179.49
  Q 199.32 179.50 199.21 179.99
  C 198.91 181.30 204.39 186.67 205.22 187.77
  Q 205.96 188.76 207.09 187.69
  Q 207.44 187.35 207.29 186.89
  Z
  M 176.94 186.37
  C 180.26 186.55 184.18 187.57 187.82 188.00
  A 0.60 0.60 0.0 0 0 188.49 187.39
  C 188.46 185.79 187.33 184.95 185.74 184.88
  Q 168.02 184.08 162.24 184.51
  Q 155.16 185.03 145.97 189.20
  Q 145.39 189.47 146.02 189.36
  C 149.32 188.79 152.23 187.85 155.55 187.65
  C 162.32 187.25 169.48 185.97 176.94 186.37
  Z
  M 151.87 199.43
  L 146.14 195.98
  A 1.41 1.41 0.0 0 1 146.45 193.43
  Q 150.14 192.29 153.89 192.72
  Q 154.42 192.78 154.92 192.60
  Q 157.65 191.57 160.42 192.38
  Q 160.99 192.55 161.08 193.15
  Q 161.75 198.13 165.12 201.92
  Q 165.48 202.32 166.01 202.27
  Q 169.69 201.95 177.29 201.60
  Q 181.40 201.42 182.46 198.14
  C 183.47 195.06 184.16 193.82 185.39 191.51
  A 1.12 1.12 0.0 0 0 184.52 189.87
  C 172.92 188.60 160.47 188.76 149.21 191.98
  Q 145.46 193.06 141.55 193.48
  Q 141.07 193.53 140.83 193.95
  C 138.63 197.79 151.51 201.77 152.16 200.40
  A 0.75 0.75 0.0 0 0 151.87 199.43
  Z
  M 236.46 194.54
  C 236.88 197.69 240.55 200.26 243.55 200.35
  Q 244.54 200.38 243.91 199.62
  L 240.79 195.82
  A 1.12 1.12 0.0 0 1 241.47 194.01
  L 254.52 191.77
  A 0.77 0.77 0.0 0 1 255.42 192.50
  Q 255.59 197.35 257.67 201.78
  Q 257.88 202.23 258.37 202.30
  C 261.32 202.68 271.22 202.45 272.29 198.52
  Q 273.54 193.94 277.81 192.03
  Q 278.31 191.81 278.19 191.28
  L 277.97 190.30
  Q 277.85 189.78 277.32 189.78
  C 273.44 189.78 269.45 188.91 265.89 189.04
  Q 251.24 189.58 237.01 193.69
  Q 236.37 193.88 236.46 194.54
  Z
  M 61.12 216.74
  C 63.49 219.97 64.11 222.63 63.06 226.79
  C 61.74 232.00 59.97 239.71 66.00 242.34
  Q 66.58 242.59 66.51 241.97
  C 66.23 239.44 64.99 237.06 64.98 234.64
  C 64.95 229.76 68.67 222.14 65.78 217.72
  C 61.81 211.65 52.28 198.93 45.09 197.11
  Q 44.56 196.98 44.16 197.36
  Q 40.13 201.18 39.27 206.74
  A 0.26 0.26 0.0 0 0 39.74 206.93
  L 43.78 201.55
  A 1.92 1.92 0.0 0 1 46.43 201.13
  Q 52.37 205.28 57.06 210.48
  Q 59.22 212.88 56.72 214.93
  C 53.75 217.36 47.80 223.85 46.95 228.40
  C 45.96 233.78 51.90 239.96 55.98 242.57
  A 0.41 0.41 0.0 0 0 56.55 242.01
  C 54.64 238.83 50.88 234.64 50.23 231.56
  C 49.04 225.89 56.15 219.36 60.30 216.59
  A 0.60 0.60 0.0 0 1 61.12 216.74
  Z
  M 87.6330 197.7441
  A 7.44 1.65 -36.6 0 0 80.6762 200.8554
  A 7.44 1.65 -36.6 0 0 75.6870 206.6159
  A 7.44 1.65 -36.6 0 0 82.6438 203.5046
  A 7.44 1.65 -36.6 0 0 87.6330 197.7441
  Z
  M 205.56 255.44
  C 200.69 252.15 196.98 255.64 193.46 258.83
  Q 193.06 259.20 192.62 258.88
  C 188.41 255.80 192.18 248.59 190.42 247.60
  Q 189.98 247.35 189.65 247.73
  Q 183.63 254.63 189.62 261.42
  C 192.36 264.52 196.57 260.58 198.97 259.15
  C 202.96 256.78 207.75 259.01 210.65 262.02
  Q 211.10 262.48 210.81 261.91
  Q 208.62 257.50 205.56 255.44
  Z
  M 216.00 286.89
  A 0.54 0.54 0.0 0 0 216.75 286.26
  L 215.61 281.85
  Q 215.47 281.35 215.64 280.85
  L 218.32 272.64
  Q 218.51 272.09 218.04 271.73
  C 214.26 268.80 208.89 283.73 216.00 286.89
  Z
  M 213.33 292.61
  L 211.10 291.69
  Q 210.51 291.45 209.91 291.64
  Q 197.76 295.48 185.48 298.95
  Q 179.26 300.71 173.68 304.03
  Q 173.04 304.41 173.79 304.48
  Q 176.08 304.66 178.74 303.97
  Q 197.10 299.23 212.34 294.07
  Q 212.66 293.96 212.90 293.72
  L 213.45 293.18
  A 0.35 0.35 0.0 0 0 213.33 292.61
  Z
  M 241.75 297.66
  A 0.45 0.45 0.0 0 1 241.54 298.50
  L 228.23 298.74
  A 0.48 0.48 0.0 0 0 228.08 299.67
  Q 237.96 303.06 248.26 301.34
  A 1.24 1.24 0.0 0 0 248.84 299.16
  Q 243.78 295.00 237.24 292.27
  C 234.71 291.22 229.57 291.59 229.58 295.23
  Q 229.58 296.04 230.36 295.84
  L 233.79 294.94
  Q 234.24 294.82 234.69 294.92
  Q 238.42 295.79 241.75 297.66
  Z
  M 210.08 300.26
  C 211.61 300.56 215.86 301.16 215.14 298.25
  Q 215.00 297.68 214.42 297.56
  Q 211.27 296.95 209.78 299.61
  A 0.44 0.44 0.0 0 0 210.08 300.26
  Z
  M 193.93 312.07
  Q 210.81 318.77 228.34 314.86
  Q 229.37 314.63 230.20 313.93
  A 0.79 0.79 0.0 0 0 229.92 312.58
  C 225.02 311.07 220.54 312.07 215.67 312.33
  C 208.68 312.71 201.99 310.83 195.30 309.20
  C 193.83 308.84 192.45 309.53 193.17 311.31
  A 1.38 1.38 0.0 0 0 193.93 312.07
  Z
  M 217.1340 352.6599
  A 5.82 1.58 118.6 0 0 221.3072 348.3063
  A 5.82 1.58 118.6 0 0 222.7060 342.4401
  A 5.82 1.58 118.6 0 0 218.5328 346.7937
  A 5.82 1.58 118.6 0 0 217.1340 352.6599
  Z
  M 278.60 377.46
  C 281.00 377.98 283.17 378.63 285.61 378.85
  Q 306.95 380.80 324.87 392.50
  Q 325.25 392.75 325.72 392.75
  L 326.57 392.75
  Q 327.29 392.75 327.23 392.03
  C 327.00 389.34 322.21 386.40 319.75 385.05
  C 307.57 378.40 292.45 373.62 278.59 376.67
  A 0.41 0.40 44.6 0 0 278.60 377.46
  Z"
/>
<path fill="#080705" d="
  M 481.01 251.54
  L 481.00 252.56
  L 480.72 255.02
  Q 480.65 255.60 480.34 255.11
  Q 480.19 254.86 480.13 254.53
  Q 480.04 253.98 479.56 253.70
  L 468.33 247.15
  Q 467.79 246.84 467.99 247.42
  L 470.11 253.93
  Q 470.41 254.86 469.81 254.09
  Q 468.04 251.84 467.53 250.20
  C 462.84 235.13 458.65 216.63 453.41 200.24
  Q 444.91 173.67 442.29 164.24
  C 440.41 157.48 434.75 145.40 427.26 143.98
  C 417.22 142.07 406.97 142.42 394.86 140.63
  C 392.31 140.25 389.68 140.68 387.10 140.28
  C 373.61 138.20 361.90 136.27 346.70 136.02
  C 340.48 135.92 337.60 137.33 333.19 141.20
  Q 327.59 146.10 322.23 151.39
  A 0.84 0.84 0.0 0 0 322.79 152.82
  C 331.03 153.05 335.74 157.33 341.83 163.49
  Q 342.23 163.89 342.63 163.50
  Q 344.00 162.19 345.14 160.65
  Q 350.62 153.26 357.29 146.97
  C 366.22 138.55 376.86 141.43 389.04 142.66
  A 0.67 0.67 0.0 0 1 389.08 143.99
  Q 380.78 145.32 372.48 144.40
  C 360.88 143.11 351.51 158.34 345.01 165.60
  A 0.58 0.57 -63.2 0 0 345.32 166.55
  C 353.23 168.18 356.66 173.14 362.48 177.94
  Q 362.96 178.33 363.41 177.90
  Q 364.62 176.73 365.33 174.81
  C 370.35 161.35 379.18 160.67 392.09 156.84
  C 398.46 154.95 406.81 151.69 414.42 149.88
  A 0.30 0.29 22.9 0 1 414.64 150.42
  C 403.40 157.00 391.91 160.35 379.67 164.26
  C 371.94 166.73 370.38 172.18 366.92 180.08
  C 365.06 184.32 375.13 194.29 377.85 196.60
  Q 378.25 196.94 378.70 196.66
  Q 386.33 191.93 390.79 184.16
  Q 391.02 183.77 390.96 183.31
  L 390.38 178.66
  Q 390.31 178.08 390.88 177.93
  C 395.59 176.68 395.22 183.60 401.25 181.39
  Q 408.61 178.68 414.01 173.00
  Q 415.22 171.72 416.92 171.49
  Q 417.48 171.41 417.49 171.98
  C 417.58 176.52 407.78 182.84 404.03 184.64
  A 1.52 1.51 53.6 0 0 403.66 187.12
  C 406.26 189.51 412.26 189.58 413.72 191.55
  Q 414.04 192.00 413.50 192.06
  C 407.95 192.67 402.51 191.93 397.05 192.64
  C 390.34 193.52 395.90 202.95 397.82 205.51
  C 402.54 211.80 407.66 218.00 408.20 223.81
  C 409.28 235.57 406.73 249.54 405.55 261.43
  C 405.35 263.47 404.62 266.46 404.76 269.20
  Q 404.79 269.71 405.13 270.09
  C 407.87 273.17 411.49 276.47 415.84 276.81
  Q 422.41 277.31 437.24 278.82
  Q 446.83 279.79 453.86 285.12
  Q 454.97 285.96 453.65 285.49
  C 448.94 283.80 444.33 281.25 439.32 280.87
  C 431.69 280.29 424.05 280.47 416.43 279.96
  C 411.36 279.62 407.78 277.39 404.42 273.95
  A 0.62 0.62 0.0 0 0 403.40 274.15
  L 397.19 289.94
  A 1.24 1.23 -65.1 0 0 397.75 291.48
  Q 409.03 297.60 420.99 303.06
  C 432.36 308.25 441.49 314.25 451.11 321.29
  Q 451.56 321.61 451.81 321.12
  Q 455.75 313.62 460.76 306.80
  C 468.16 296.73 473.35 286.14 477.61 274.42
  C 479.24 269.93 479.65 265.07 480.22 260.29
  Q 480.38 259.00 480.47 260.30
  L 481.00 268.31
  L 481.00 271.81
  C 478.68 281.38 475.07 289.68 470.21 298.22
  C 466.12 305.40 458.73 314.38 454.34 322.58
  C 449.09 332.36 445.23 341.45 440.04 346.08
  A 1.00 0.99 -48.9 0 0 440.14 347.64
  Q 456.77 358.95 473.99 368.71
  Q 476.12 369.92 481.00 373.81
  L 481.00 376.31
  L 480.65 376.54
  Q 480.40 376.70 480.18 376.51
  Q 478.69 375.24 477.05 374.21
  Q 458.38 362.47 439.59 350.91
  C 428.90 344.33 432.28 326.38 434.27 316.00
  C 434.81 313.20 428.39 309.55 426.33 308.65
  Q 411.78 302.34 396.13 294.42
  A 0.61 0.60 -64.6 0 0 395.30 294.72
  L 389.23 308.89
  Q 389.01 309.39 389.27 309.88
  C 390.22 311.63 391.90 313.11 392.75 314.65
  C 405.59 337.82 416.37 360.21 410.88 386.58
  C 407.00 405.21 400.61 423.57 394.26 441.51
  Q 393.53 443.57 392.62 448.54
  Q 392.51 449.13 391.91 449.06
  L 389.58 448.78
  Q 388.97 448.71 388.99 448.09
  C 389.03 446.92 388.86 445.46 389.14 444.35
  C 394.02 424.88 391.69 407.54 392.59 387.01
  C 392.84 381.39 390.63 375.92 389.76 370.46
  Q 388.39 361.81 384.19 354.00
  A 0.72 0.71 -54.3 0 0 382.86 354.22
  C 379.75 371.49 374.34 388.92 369.97 406.23
  A 1.61 1.59 88.8 0 1 368.87 407.39
  C 365.55 408.36 368.33 398.85 368.67 397.48
  Q 373.62 377.51 378.68 357.56
  C 379.05 356.07 379.11 354.41 379.28 352.87
  Q 379.34 352.37 379.08 351.93
  C 373.17 341.79 356.98 333.27 347.56 330.17
  Q 327.20 323.46 301.99 325.02
  Q 301.53 325.05 301.17 325.35
  Q 297.43 328.54 296.77 329.79
  Q 289.41 343.86 281.80 357.81
  Q 277.59 365.52 272.26 371.17
  C 265.75 378.06 256.39 380.57 252.24 389.77
  C 246.91 401.61 238.43 410.90 230.30 420.80
  Q 225.46 426.70 218.13 431.94
  Q 202.79 442.92 187.52 454.03
  Q 184.86 455.96 181.82 457.15
  A 0.42 0.42 0.0 0 1 181.37 456.45
  C 191.02 447.34 202.52 439.30 213.24 431.47
  C 230.02 419.22 240.78 404.79 250.01 386.33
  C 254.21 377.92 262.82 375.90 268.92 369.66
  C 278.63 359.70 285.15 344.49 291.45 332.31
  Q 291.95 331.35 291.08 330.69
  Q 278.98 321.43 265.15 315.01
  A 1.52 1.51 -66.9 0 0 263.10 315.84
  Q 257.25 330.83 250.92 345.68
  C 247.90 352.77 243.52 358.85 236.37 362.33
  Q 227.99 366.42 219.30 367.49
  A 2.81 2.81 0.0 0 0 216.86 369.86
  Q 214.36 386.39 211.20 402.74
  Q 210.57 406.02 209.13 408.98
  Q 208.68 409.91 208.44 408.90
  Q 207.98 406.96 208.25 404.75
  Q 210.81 384.28 213.32 369.31
  Q 213.41 368.74 212.91 368.45
  Q 211.50 367.64 209.49 367.99
  Q 202.83 369.16 194.58 367.58
  Q 160.83 361.11 125.70 344.27
  Q 92.92 328.57 79.52 294.06
  Q 78.75 292.08 78.50 290.87
  Q 78.40 290.36 78.88 290.17
  Q 80.40 289.56 81.01 290.78
  C 89.06 306.97 95.23 319.68 109.99 330.09
  Q 127.27 342.29 147.21 349.74
  C 168.21 357.58 192.27 366.01 214.70 364.07
  Q 221.90 363.44 232.54 359.96
  C 239.75 357.61 242.92 354.75 246.04 347.49
  C 250.47 337.20 254.17 327.55 258.98 316.49
  C 261.27 311.23 263.11 305.44 265.09 300.54
  C 272.16 283.08 278.30 264.48 281.00 245.81
  Q 285.99 211.43 283.20 176.67
  Q 283.16 176.16 282.72 175.91
  C 271.15 169.19 244.09 178.45 231.51 182.02
  A 1.36 1.35 -7.0 0 0 230.52 183.28
  Q 229.65 210.41 237.70 235.77
  C 240.81 245.58 250.31 248.19 241.88 260.12
  Q 241.48 260.70 240.96 260.22
  C 234.23 253.94 226.75 273.18 218.60 263.72
  A 0.39 0.39 0.0 0 1 218.91 263.08
  C 228.86 263.42 234.07 256.04 235.32 247.04
  C 235.92 242.74 233.28 237.75 232.59 234.18
  C 229.51 218.17 227.15 202.38 226.79 186.05
  C 226.64 179.40 230.03 176.20 236.30 174.37
  C 249.32 170.59 263.06 166.70 275.77 168.64
  C 278.26 169.03 279.89 170.41 281.88 171.84
  A 0.58 0.58 0.0 0 0 282.80 171.33
  L 282.06 158.99
  Q 282.03 158.52 281.62 158.29
  Q 280.63 157.76 278.98 157.31
  Q 251.33 149.87 225.56 147.99
  C 193.16 145.63 161.02 146.01 128.81 150.39
  C 118.00 151.86 108.18 154.19 98.02 157.29
  Q 94.55 158.35 91.96 160.79
  Q 91.59 161.14 91.55 161.65
  Q 90.88 170.66 90.74 179.58
  C 90.54 192.28 80.11 198.72 70.05 203.72
  A 0.88 0.87 75.3 0 1 68.79 202.98
  C 68.70 201.32 77.88 195.97 79.56 194.84
  C 88.56 188.79 86.94 172.03 87.80 162.70
  A 0.45 0.44 80.1 0 0 87.17 162.25
  Q 68.02 171.12 50.20 182.20
  Q 48.32 183.38 47.39 184.13
  Q 46.65 184.73 47.56 185.02
  C 52.70 186.69 57.33 188.27 59.37 192.68
  A 0.49 0.49 0.0 0 1 58.68 193.31
  Q 53.00 190.04 46.55 188.74
  A 1.66 1.64 30.0 0 0 45.14 189.11
  C 39.31 194.18 32.69 203.44 33.10 211.61
  C 33.24 214.42 33.01 217.39 33.77 220.07
  C 36.34 229.20 38.52 241.31 44.57 248.66
  Q 53.83 259.92 62.48 271.66
  C 64.82 274.83 67.46 276.14 71.08 274.32
  C 73.55 273.08 73.62 267.80 73.51 265.35
  Q 73.12 257.26 75.47 249.52
  Q 75.65 248.91 75.78 249.53
  Q 77.65 258.98 77.45 268.57
  C 77.23 279.09 67.86 275.74 63.14 281.91
  C 60.24 285.71 60.94 292.60 60.58 297.33
  C 58.99 318.17 66.55 339.73 80.08 355.41
  C 93.62 371.11 109.88 384.94 125.43 399.19
  C 139.64 412.20 151.34 425.00 161.79 440.75
  A 0.17 0.17 0.0 0 1 161.53 440.97
  C 152.23 431.70 142.90 420.58 134.42 412.39
  Q 121.11 399.55 102.19 382.80
  C 92.06 373.84 78.85 361.11 71.29 349.97
  C 59.88 333.18 52.55 309.51 57.60 289.10
  A 0.47 0.47 0.0 0 0 56.80 288.67
  C 47.95 298.21 38.06 307.29 35.80 320.70
  Q 33.83 332.39 31.21 343.95
  Q 31.02 344.82 30.91 343.94
  Q 29.84 334.98 31.76 322.25
  C 33.45 311.01 36.30 305.62 44.33 297.12
  Q 53.19 287.74 61.71 276.81
  A 0.92 0.91 -44.7 0 0 61.72 275.69
  Q 51.85 262.67 41.13 249.80
  C 35.61 243.18 32.55 229.86 30.51 221.49
  C 28.75 214.27 28.40 208.46 31.68 202.12
  Q 34.85 195.99 38.19 189.94
  C 41.31 184.29 38.55 176.68 38.47 170.23
  Q 38.47 169.76 38.74 169.38
  L 40.79 166.56
  Q 41.17 166.04 40.85 165.48
  C 36.15 157.29 36.26 142.59 37.29 135.51
  Q 40.60 112.61 50.98 90.46
  C 59.88 71.46 76.96 54.74 94.62 43.69
  C 125.94 24.09 161.58 21.13 196.72 32.98
  C 210.63 37.68 223.48 42.09 238.53 45.23
  Q 248.02 47.21 261.01 50.71
  C 270.55 53.28 273.32 59.01 277.39 67.23
  Q 281.77 76.06 287.60 84.00
  C 294.38 93.23 299.44 107.46 298.76 118.96
  Q 298.51 123.11 296.14 129.78
  C 295.01 132.96 289.23 146.99 290.88 149.38
  A 1.11 1.11 0.0 0 0 292.77 149.28
  C 298.73 138.40 309.68 128.15 318.67 119.67
  C 324.76 113.92 330.28 114.73 338.40 117.23
  Q 365.50 125.59 392.53 134.21
  C 402.75 137.47 411.97 138.71 422.25 139.63
  C 436.32 140.88 442.93 153.01 446.34 164.93
  C 453.03 188.33 460.01 210.81 466.50 235.50
  C 469.01 245.02 472.70 247.29 481.01 251.54
  Z
  M 96.06 115.27
  C 97.87 111.99 103.32 109.75 107.93 107.46
  C 117.98 102.47 127.10 96.22 137.35 91.39
  A 0.71 0.71 0.0 0 0 137.28 90.08
  C 135.90 89.61 129.85 87.59 129.57 85.96
  A 1.10 1.09 4.3 0 1 131.00 84.74
  C 143.19 88.76 165.91 93.18 177.23 86.87
  C 186.61 81.65 194.72 79.15 205.52 80.34
  Q 219.76 81.91 232.07 89.39
  C 235.91 91.72 238.44 92.79 242.13 90.10
  C 253.29 81.96 257.38 77.50 270.23 87.08
  C 280.77 94.94 284.57 108.93 284.20 121.56
  C 284.03 127.52 284.81 132.91 285.27 138.78
  Q 285.44 140.85 287.16 140.98
  A 1.70 1.70 0.0 0 0 288.91 139.80
  C 291.03 133.18 294.68 125.25 294.91 118.55
  Q 295.55 100.16 284.71 85.62
  C 279.30 78.34 275.44 70.97 271.12 63.28
  C 269.21 59.88 266.50 56.35 263.21 55.26
  C 243.28 48.69 220.76 46.74 201.05 38.48
  C 186.03 32.20 171.41 30.31 157.25 29.75
  Q 147.16 29.35 141.00 30.51
  C 134.12 31.80 126.84 32.67 120.48 34.81
  C 101.27 41.26 87.11 52.19 72.07 66.34
  C 63.68 74.23 58.70 80.77 54.18 90.68
  C 44.52 111.87 38.03 135.68 42.19 158.71
  Q 42.57 160.82 43.34 162.78
  A 0.58 0.57 -26.8 0 0 44.18 163.05
  Q 57.93 154.15 71.98 145.80
  C 77.63 142.45 84.11 139.52 90.21 136.29
  Q 90.67 136.05 90.94 135.61
  Q 98.67 122.99 108.52 111.95
  A 0.68 0.68 0.0 0 0 107.68 110.91
  Q 102.29 113.98 96.35 115.65
  Q 95.75 115.82 96.06 115.27
  Z
  M 174.92 92.11
  C 165.26 95.26 154.24 93.34 144.26 92.39
  Q 143.75 92.34 143.30 92.56
  Q 128.69 99.56 114.71 107.74
  C 112.45 109.06 111.38 112.60 109.80 114.64
  Q 102.13 124.54 95.02 134.37
  A 0.39 0.39 0.0 0 0 95.47 134.96
  Q 101.64 132.59 107.60 131.50
  Q 145.84 124.54 184.53 121.06
  C 217.97 118.05 248.18 124.36 279.13 128.87
  Q 279.69 128.95 279.92 128.43
  Q 280.84 126.36 280.73 123.74
  C 280.07 108.07 278.01 94.38 262.75 86.53
  C 254.34 82.20 248.94 90.09 242.93 94.19
  C 238.27 97.38 232.58 94.01 228.31 91.49
  Q 210.73 81.14 191.49 84.73
  C 185.73 85.81 179.92 90.47 174.92 92.11
  Z
  M 312.82 130.04
  C 309.61 133.46 298.20 144.19 297.53 147.22
  Q 297.37 147.90 298.00 147.58
  Q 300.50 146.30 302.55 147.43
  C 308.60 150.78 304.90 156.12 303.47 160.67
  Q 303.32 161.15 303.71 161.44
  L 306.72 163.70
  A 1.34 1.33 37.2 0 0 308.57 163.45
  C 314.84 155.41 333.63 131.27 344.25 131.68
  Q 360.34 132.30 383.99 136.29
  Q 385.37 136.52 390.03 136.14
  Q 391.25 136.04 390.05 135.82
  C 388.42 135.53 386.89 135.39 385.44 134.97
  C 367.26 129.71 349.11 123.54 330.75 119.02
  C 324.25 117.43 316.88 125.69 312.82 130.04
  Z
  M 205.31 130.98
  L 204.95 124.12
  A 0.98 0.97 -4.7 0 0 203.86 123.20
  L 195.96 124.12
  Q 195.35 124.19 195.38 124.79
  Q 195.76 132.45 195.76 140.11
  C 195.76 143.17 197.52 142.34 199.60 142.50
  Q 208.25 143.14 216.96 143.55
  Q 217.57 143.58 217.52 142.98
  L 216.14 124.99
  Q 216.08 124.28 215.38 124.18
  L 209.86 123.36
  Q 208.94 123.22 208.91 124.15
  L 208.68 130.56
  Q 208.66 131.13 208.20 131.47
  Q 207.22 132.19 205.73 131.58
  Q 205.33 131.42 205.31 130.98
  Z
  M 180.63 132.76
  A 0.79 0.79 0.0 0 1 179.82 131.97
  L 179.85 126.21
  A 0.79 0.79 0.0 0 0 179.06 125.42
  L 171.97 125.37
  A 0.79 0.79 0.0 0 0 171.18 126.18
  L 171.56 141.29
  A 0.79 0.79 0.0 0 0 172.36 142.06
  L 191.54 141.73
  A 0.79 0.79 0.0 0 0 192.31 140.89
  L 191.19 125.13
  A 0.79 0.79 0.0 0 0 190.39 124.40
  L 184.34 124.54
  A 0.79 0.79 0.0 0 0 183.57 125.39
  L 184.07 131.85
  A 0.79 0.79 0.0 0 1 183.30 132.70
  L 180.63 132.76
  Z
  M 232.06 134.20
  C 227.91 134.70 228.54 128.42 228.44 125.80
  Q 228.42 125.28 227.91 125.22
  L 223.19 124.65
  A 2.17 2.16 -85.7 0 0 220.77 126.74
  Q 220.53 134.75 221.81 142.72
  A 1.85 1.84 84.1 0 0 223.72 144.28
  Q 231.53 143.94 239.17 145.48
  Q 239.68 145.58 239.73 145.06
  Q 240.29 137.93 239.68 130.79
  C 239.33 126.68 237.23 125.45 233.36 125.77
  A 0.94 0.94 0.0 0 0 232.50 126.71
  L 232.50 133.71
  Q 232.50 134.15 232.06 134.20
  Z
  M 159.10 133.61
  A 0.77 0.77 0.0 0 1 158.34 134.46
  L 155.80 134.46
  A 0.77 0.77 0.0 0 1 155.04 133.73
  L 154.81 128.83
  A 0.77 0.77 0.0 0 0 154.00 128.09
  L 147.20 128.38
  A 0.77 0.77 0.0 0 0 146.47 129.18
  L 147.13 143.36
  A 0.77 0.77 0.0 0 0 147.97 144.10
  L 166.95 142.33
  A 0.77 0.77 0.0 0 0 167.64 141.48
  L 166.02 127.36
  A 0.77 0.77 0.0 0 0 165.21 126.68
  L 159.23 127.01
  A 0.77 0.77 0.0 0 0 158.50 127.86
  L 159.10 133.61
  Z
  M 252.29 136.51
  L 251.87 129.25
  Q 251.84 128.81 251.43 128.64
  Q 247.86 127.20 244.28 128.76
  A 1.37 1.35 -14.2 0 0 243.47 130.10
  L 244.63 144.66
  A 1.48 1.48 0.0 0 0 245.89 146.01
  L 261.07 148.27
  A 1.67 1.66 7.1 0 0 262.97 146.80
  C 263.51 141.90 262.23 137.01 262.57 131.91
  A 1.04 1.04 0.0 0 0 261.82 130.84
  L 256.43 129.30
  Q 255.66 129.08 255.63 129.87
  L 255.37 136.67
  Q 255.35 137.24 254.78 137.24
  L 253.06 137.24
  Q 252.33 137.24 252.29 136.51
  Z
  M 135.97 139.24
  L 133.91 138.52
  Q 133.28 138.29 133.23 137.62
  L 132.83 131.68
  Q 132.79 131.05 132.17 131.14
  L 124.49 132.23
  Q 123.76 132.33 123.76 133.07
  C 123.71 137.63 124.96 141.79 125.32 146.34
  Q 125.36 146.80 125.81 146.73
  L 143.09 144.44
  A 0.85 0.84 78.6 0 0 143.79 143.38
  Q 142.00 136.74 142.79 129.92
  Q 142.85 129.44 142.38 129.34
  Q 139.59 128.78 137.32 130.23
  Q 136.85 130.52 136.87 131.07
  L 137.05 138.46
  A 0.81 0.81 0.0 0 1 135.97 139.24
  Z
  M 275.53 141.38
  C 271.73 142.58 272.16 135.36 271.88 133.12
  Q 271.79 132.40 271.07 132.39
  L 267.71 132.36
  Q 267.02 132.35 266.94 133.03
  Q 266.15 139.77 266.62 146.58
  C 266.96 151.47 273.53 151.42 277.33 152.04
  Q 279.04 152.31 279.50 150.64
  C 280.94 145.41 282.37 138.42 279.97 133.10
  Q 279.69 132.49 279.02 132.49
  L 276.23 132.52
  Q 275.69 132.52 275.71 133.06
  L 276.10 140.55
  Q 276.13 141.19 275.53 141.38
  Z
  M 110.95 142.93
  A 1.61 1.61 0.0 0 1 109.36 141.37
  L 109.19 136.54
  Q 109.15 135.36 108.00 135.57
  L 99.69 137.05
  A 1.42 1.42 0.0 0 0 98.53 138.41
  C 98.46 142.02 96.41 153.11 102.77 151.74
  Q 111.69 149.83 120.51 147.83
  A 0.99 0.99 0.0 0 0 121.28 146.84
  Q 121.17 141.41 120.93 136.06
  C 120.74 131.74 115.81 133.02 113.19 133.70
  Q 112.69 133.83 112.74 134.34
  C 112.95 136.42 114.45 142.99 110.95 142.93
  Z
  M 83.23 151.97
  Q 83.49 148.50 82.18 145.28
  Q 81.91 144.63 81.32 145.00
  L 75.13 148.84
  Q 74.64 149.14 74.70 149.70
  L 75.96 161.84
  A 0.80 0.80 0.0 0 0 77.06 162.50
  C 81.92 160.55 92.05 157.49 95.19 153.55
  Q 95.50 153.16 95.40 152.68
  Q 94.07 146.12 95.01 139.51
  A 0.72 0.71 81.5 0 0 94.00 138.76
  L 87.17 142.00
  A 1.72 1.71 71.8 0 0 86.23 143.87
  L 87.61 150.91
  Q 87.78 151.79 86.91 151.96
  L 83.89 152.55
  Q 83.18 152.68 83.23 151.97
  Z
  M 284.34 153.73
  Q 285.35 155.56 286.87 154.95
  A 1.08 1.07 75.2 0 0 287.53 153.80
  L 286.39 146.39
  A 1.20 1.20 0.0 0 0 284.16 145.98
  Q 282.08 149.63 284.34 153.73
  Z
  M 296.00 150.90
  C 293.93 152.48 291.97 154.76 291.15 157.15
  Q 290.96 157.72 291.50 157.99
  Q 297.40 160.92 301.97 157.18
  C 306.60 153.37 300.35 147.56 296.00 150.90
  Z
  M 65.85 161.89
  L 63.86 161.21
  Q 63.36 161.03 63.21 160.52
  L 62.44 157.74
  A 1.07 1.06 -16.1 0 0 61.11 157.01
  Q 57.58 158.06 55.60 161.08
  Q 55.33 161.49 55.38 161.99
  L 56.44 173.30
  A 0.60 0.60 0.0 0 0 57.35 173.76
  L 72.59 164.40
  Q 73.11 164.09 72.97 163.50
  Q 71.59 157.65 72.07 151.65
  Q 72.15 150.75 71.36 151.19
  L 66.75 153.74
  Q 66.19 154.05 66.22 154.68
  L 66.58 161.34
  Q 66.62 162.16 65.85 161.89
  Z
  M 315.69 231.99
  Q 313.64 217.08 313.19 202.05
  C 312.78 188.35 312.30 174.59 302.67 164.56
  Q 300.83 162.65 300.72 165.45
  C 300.59 168.55 303.49 170.55 299.99 173.52
  Q 295.83 177.04 290.53 178.18
  A 1.57 1.55 -7.3 0 0 289.30 179.76
  Q 289.73 192.23 289.76 204.67
  C 289.80 216.61 287.53 228.51 286.89 240.16
  C 286.38 249.42 285.57 259.27 288.04 268.27
  C 290.93 278.83 299.77 290.43 306.59 299.43
  C 311.06 305.33 306.34 314.00 304.53 320.20
  Q 304.36 320.79 304.97 320.78
  Q 323.09 320.49 340.62 324.47
  C 352.31 327.12 363.78 333.74 373.95 339.99
  A 0.42 0.42 0.0 0 0 374.58 339.71
  Q 376.80 327.49 381.88 316.41
  Q 391.20 296.10 399.02 275.22
  Q 400.48 271.31 400.95 267.05
  Q 402.87 249.66 404.61 232.27
  C 405.32 225.23 402.71 212.44 393.81 211.50
  C 388.26 210.92 385.30 209.97 381.43 205.82
  Q 370.83 194.44 361.46 182.05
  C 360.10 180.25 351.14 171.09 347.10 170.55
  A 1.41 1.41 0.0 0 0 345.57 172.37
  C 349.60 185.24 354.57 196.39 360.02 209.08
  A 0.57 0.57 0.0 0 1 359.06 209.67
  C 349.99 198.71 346.28 186.35 340.43 170.00
  Q 336.64 159.39 326.30 156.40
  C 319.11 154.31 314.21 161.64 311.11 166.83
  A 2.48 2.46 47.6 0 0 311.01 169.17
  C 314.63 176.68 315.27 183.37 316.36 191.45
  C 317.81 202.11 316.99 212.02 316.75 225.25
  Q 316.67 229.49 316.28 232.00
  Q 315.97 234.01 315.69 231.99
  Z
  M 294.77 163.07
  C 289.51 162.95 288.98 169.85 289.40 174.11
  Q 289.45 174.63 289.97 174.72
  C 292.87 175.17 299.49 173.61 298.34 169.59
  C 297.96 168.25 296.57 163.11 294.77 163.07
  Z
  M 50.53 163.32
  C 42.57 166.48 41.23 172.58 43.61 180.26
  Q 43.78 180.81 44.28 180.53
  L 53.12 175.63
  Q 53.68 175.31 53.47 174.71
  Q 51.64 169.51 51.55 164.00
  A 0.75 0.75 0.0 0 0 50.53 163.32
  Z
  M 384.31 196.99
  Q 385.41 199.72 388.35 199.25
  A 1.37 1.36 -4.3 0 0 389.49 197.93
  Q 389.52 194.70 385.78 194.77
  A 1.62 1.62 0.0 0 0 384.31 196.99
  Z
  M 265.98 311.03
  Q 280.31 318.88 293.49 328.52
  Q 293.91 328.83 294.23 328.42
  Q 295.93 326.21 297.53 323.94
  C 298.61 322.41 301.44 320.19 301.80 318.53
  C 302.90 313.48 306.76 304.45 303.28 299.99
  C 295.97 290.61 290.13 282.77 285.81 272.68
  C 283.45 267.18 283.66 260.87 283.50 254.96
  Q 283.34 249.14 282.90 254.87
  C 282.73 257.20 282.50 258.96 282.05 260.85
  C 277.49 280.13 271.47 293.60 265.61 310.05
  Q 265.38 310.69 265.98 311.03
  Z
  M 437.71 343.36
  A 0.89 0.89 0.0 0 0 439.14 343.21
  L 449.79 325.05
  A 0.94 0.94 0.0 0 0 449.50 323.80
  L 436.87 315.28
  Q 436.02 314.71 436.01 315.73
  C 435.98 318.48 436.63 321.00 436.32 323.58
  C 435.76 328.19 434.47 339.83 437.71 343.36
  Z
  M 389.07 315.79
  A 0.74 0.74 0.0 0 0 387.81 315.69
  C 383.93 320.99 379.60 328.84 380.85 335.71
  A 1.10 1.09 69.7 0 0 382.48 336.46
  L 394.02 329.70
  A 1.91 1.90 61.6 0 0 394.76 327.20
  L 389.07 315.79
  Z
  M 392.30 358.65
  Q 399.65 356.01 404.95 350.31
  Q 405.28 349.96 405.11 349.51
  L 403.38 344.92
  A 1.64 1.64 0.0 0 0 400.77 344.26
  L 397.17 347.38
  A 1.52 1.52 0.0 0 1 394.72 346.68
  C 393.54 342.88 398.03 341.30 400.64 339.66
  Q 401.16 339.33 400.82 338.81
  L 397.53 333.82
  Q 397.15 333.25 396.50 333.48
  C 393.62 334.53 381.36 339.33 383.34 343.67
  C 384.52 346.26 387.79 354.54 391.18 358.36
  Q 391.65 358.88 392.30 358.65
  Z
  M 380.2113 345.9064
  A 2.56 1.25 52.7 0 0 379.6543 343.1125
  A 2.56 1.25 52.7 0 0 377.1087 341.8336
  A 2.56 1.25 52.7 0 0 377.6657 344.6275
  A 2.56 1.25 52.7 0 0 380.2113 345.9064
  Z
  M 401.37 371.81
  C 400.65 369.12 405.77 365.65 407.13 364.53
  Q 407.61 364.13 407.56 363.51
  L 407.03 357.03
  Q 406.87 355.03 405.19 356.12
  L 393.58 363.64
  Q 392.92 364.07 393.09 364.83
  Q 394.50 371.15 396.07 377.54
  C 396.73 380.26 396.35 382.73 396.22 385.49
  A 0.95 0.94 71.0 0 0 397.78 386.25
  C 403.68 381.14 410.05 378.66 409.07 369.23
  A 0.47 0.47 0.0 0 0 408.29 368.92
  Q 405.57 371.35 402.09 372.24
  Q 401.52 372.38 401.37 371.81
  Z
  M 401.44 395.93
  L 401.86 395.52
  Q 402.16 395.22 402.24 394.80
  Q 402.65 392.80 404.68 392.28
  Q 405.33 392.12 405.53 391.48
  L 407.26 385.96
  A 1.00 0.99 -10.8 0 0 405.68 384.89
  L 397.13 391.85
  Q 396.67 392.22 396.69 392.81
  L 396.92 401.47
  Q 396.94 402.24 397.71 402.30
  L 400.77 402.55
  Q 401.28 402.59 401.64 402.23
  C 402.92 400.94 407.19 396.33 401.75 396.62
  A 0.41 0.40 -69.3 0 1 401.44 395.93
  Z
  M 399.91 407.40
  C 397.38 406.48 396.01 409.59 396.34 411.68
  C 396.62 413.39 395.44 421.11 395.89 421.44
  Q 396.44 421.84 396.64 421.20
  L 400.63 408.86
  A 1.18 1.17 18.9 0 0 399.91 407.40
  Z"
/>
<path fill="#ffffff" d="
  M 96.35 115.65
  Q 102.29 113.98 107.68 110.91
  A 0.68 0.68 0.0 0 1 108.52 111.95
  Q 98.67 122.99 90.94 135.61
  Q 90.67 136.05 90.21 136.29
  C 84.11 139.52 77.63 142.45 71.98 145.80
  Q 57.93 154.15 44.18 163.05
  A 0.58 0.57 -26.8 0 1 43.34 162.78
  Q 42.57 160.82 42.19 158.71
  C 38.03 135.68 44.52 111.87 54.18 90.68
  C 58.70 80.77 63.68 74.23 72.07 66.34
  C 87.11 52.19 101.27 41.26 120.48 34.81
  C 126.84 32.67 134.12 31.80 141.00 30.51
  Q 147.16 29.35 157.25 29.75
  C 171.41 30.31 186.03 32.20 201.05 38.48
  C 220.76 46.74 243.28 48.69 263.21 55.26
  C 266.50 56.35 269.21 59.88 271.12 63.28
  C 275.44 70.97 279.30 78.34 284.71 85.62
  Q 295.55 100.16 294.91 118.55
  C 294.68 125.25 291.03 133.18 288.91 139.80
  A 1.70 1.70 0.0 0 1 287.16 140.98
  Q 285.44 140.85 285.27 138.78
  C 284.81 132.91 284.03 127.52 284.20 121.56
  C 284.57 108.93 280.77 94.94 270.23 87.08
  C 257.38 77.50 253.29 81.96 242.13 90.10
  C 238.44 92.79 235.91 91.72 232.07 89.39
  Q 219.76 81.91 205.52 80.34
  C 194.72 79.15 186.61 81.65 177.23 86.87
  C 165.91 93.18 143.19 88.76 131.00 84.74
  A 1.10 1.09 4.3 0 0 129.57 85.96
  C 129.85 87.59 135.90 89.61 137.28 90.08
  A 0.71 0.71 0.0 0 1 137.35 91.39
  C 127.10 96.22 117.98 102.47 107.93 107.46
  C 103.32 109.75 97.87 111.99 96.06 115.27
  Q 95.75 115.82 96.35 115.65
  Z"
/>
<path fill="#ffffff" d="
  M 144.26 92.39
  C 154.24 93.34 165.26 95.26 174.92 92.11
  C 179.92 90.47 185.73 85.81 191.49 84.73
  Q 210.73 81.14 228.31 91.49
  C 232.58 94.01 238.27 97.38 242.93 94.19
  C 248.94 90.09 254.34 82.20 262.75 86.53
  C 278.01 94.38 280.07 108.07 280.73 123.74
  Q 280.84 126.36 279.92 128.43
  Q 279.69 128.95 279.13 128.87
  C 248.18 124.36 217.97 118.05 184.53 121.06
  Q 145.84 124.54 107.60 131.50
  Q 101.64 132.59 95.47 134.96
  A 0.39 0.39 0.0 0 1 95.02 134.37
  Q 102.13 124.54 109.80 114.64
  C 111.38 112.60 112.45 109.06 114.71 107.74
  Q 128.69 99.56 143.30 92.56
  Q 143.75 92.34 144.26 92.39
  Z"
/>
<path fill="#ffffff" d="
  M 312.82 130.04
  C 316.88 125.69 324.25 117.43 330.75 119.02
  C 349.11 123.54 367.26 129.71 385.44 134.97
  C 386.89 135.39 388.42 135.53 390.05 135.82
  Q 391.25 136.04 390.03 136.14
  Q 385.37 136.52 383.99 136.29
  Q 360.34 132.30 344.25 131.68
  C 333.63 131.27 314.84 155.41 308.57 163.45
  A 1.34 1.33 37.2 0 1 306.72 163.70
  L 303.71 161.44
  Q 303.32 161.15 303.47 160.67
  C 304.90 156.12 308.60 150.78 302.55 147.43
  Q 300.50 146.30 298.00 147.58
  Q 297.37 147.90 297.53 147.22
  C 298.20 144.19 309.61 133.46 312.82 130.04
  Z"
/>
<path fill="#f5d545" d="
  M 205.73 131.58
  Q 207.22 132.19 208.20 131.47
  Q 208.66 131.13 208.68 130.56
  L 208.91 124.15
  Q 208.94 123.22 209.86 123.36
  L 215.38 124.18
  Q 216.08 124.28 216.14 124.99
  L 217.52 142.98
  Q 217.57 143.58 216.96 143.55
  Q 208.25 143.14 199.60 142.50
  C 197.52 142.34 195.76 143.17 195.76 140.11
  Q 195.76 132.45 195.38 124.79
  Q 195.35 124.19 195.96 124.12
  L 203.86 123.20
  A 0.98 0.97 -4.7 0 1 204.95 124.12
  L 205.31 130.98
  Q 205.33 131.42 205.73 131.58
  Z"
/>
<path fill="#f5d545" d="
  M 180.63 132.76
  L 183.30 132.70
  A 0.79 0.79 0.0 0 0 184.07 131.85
  L 183.57 125.39
  A 0.79 0.79 0.0 0 1 184.34 124.54
  L 190.39 124.40
  A 0.79 0.79 0.0 0 1 191.19 125.13
  L 192.31 140.89
  A 0.79 0.79 0.0 0 1 191.54 141.73
  L 172.36 142.06
  A 0.79 0.79 0.0 0 1 171.56 141.29
  L 171.18 126.18
  A 0.79 0.79 0.0 0 1 171.97 125.37
  L 179.06 125.42
  A 0.79 0.79 0.0 0 1 179.85 126.21
  L 179.82 131.97
  A 0.79 0.79 0.0 0 0 180.63 132.76
  Z"
/>
<path fill="#f5d545" d="
  M 232.50 133.71
  L 232.50 126.71
  A 0.94 0.94 0.0 0 1 233.36 125.77
  C 237.23 125.45 239.33 126.68 239.68 130.79
  Q 240.29 137.93 239.73 145.06
  Q 239.68 145.58 239.17 145.48
  Q 231.53 143.94 223.72 144.28
  A 1.85 1.84 84.1 0 1 221.81 142.72
  Q 220.53 134.75 220.77 126.74
  A 2.17 2.16 -85.7 0 1 223.19 124.65
  L 227.91 125.22
  Q 228.42 125.28 228.44 125.80
  C 228.54 128.42 227.91 134.70 232.06 134.20
  Q 232.50 134.15 232.50 133.71
  Z"
/>
<path fill="#f5d545" d="
  M 159.10 133.61
  L 158.50 127.86
  A 0.77 0.77 0.0 0 1 159.23 127.01
  L 165.21 126.68
  A 0.77 0.77 0.0 0 1 166.02 127.36
  L 167.64 141.48
  A 0.77 0.77 0.0 0 1 166.95 142.33
  L 147.97 144.10
  A 0.77 0.77 0.0 0 1 147.13 143.36
  L 146.47 129.18
  A 0.77 0.77 0.0 0 1 147.20 128.38
  L 154.00 128.09
  A 0.77 0.77 0.0 0 1 154.81 128.83
  L 155.04 133.73
  A 0.77 0.77 0.0 0 0 155.80 134.46
  L 158.34 134.46
  A 0.77 0.77 0.0 0 0 159.10 133.61
  Z"
/>
<path fill="#f5d545" d="
  M 253.06 137.24
  L 254.78 137.24
  Q 255.35 137.24 255.37 136.67
  L 255.63 129.87
  Q 255.66 129.08 256.43 129.30
  L 261.82 130.84
  A 1.04 1.04 0.0 0 1 262.57 131.91
  C 262.23 137.01 263.51 141.90 262.97 146.80
  A 1.67 1.66 7.1 0 1 261.07 148.27
  L 245.89 146.01
  A 1.48 1.48 0.0 0 1 244.63 144.66
  L 243.47 130.10
  A 1.37 1.35 -14.2 0 1 244.28 128.76
  Q 247.86 127.20 251.43 128.64
  Q 251.84 128.81 251.87 129.25
  L 252.29 136.51
  Q 252.33 137.24 253.06 137.24
  Z"
/>
<path fill="#f5d545" d="
  M 135.97 139.24
  A 0.81 0.81 0.0 0 0 137.05 138.46
  L 136.87 131.07
  Q 136.85 130.52 137.32 130.23
  Q 139.59 128.78 142.38 129.34
  Q 142.85 129.44 142.79 129.92
  Q 142.00 136.74 143.79 143.38
  A 0.85 0.84 78.6 0 1 143.09 144.44
  L 125.81 146.73
  Q 125.36 146.80 125.32 146.34
  C 124.96 141.79 123.71 137.63 123.76 133.07
  Q 123.76 132.33 124.49 132.23
  L 132.17 131.14
  Q 132.79 131.05 132.83 131.68
  L 133.23 137.62
  Q 133.28 138.29 133.91 138.52
  L 135.97 139.24
  Z"
/>
<path fill="#f5d545" d="
  M 276.10 140.55
  L 275.71 133.06
  Q 275.69 132.52 276.23 132.52
  L 279.02 132.49
  Q 279.69 132.49 279.97 133.10
  C 282.37 138.42 280.94 145.41 279.50 150.64
  Q 279.04 152.31 277.33 152.04
  C 273.53 151.42 266.96 151.47 266.62 146.58
  Q 266.15 139.77 266.94 133.03
  Q 267.02 132.35 267.71 132.36
  L 271.07 132.39
  Q 271.79 132.40 271.88 133.12
  C 272.16 135.36 271.73 142.58 275.53 141.38
  Q 276.13 141.19 276.10 140.55
  Z"
/>
<path fill="#f5d545" d="
  M 110.95 142.93
  C 114.45 142.99 112.95 136.42 112.74 134.34
  Q 112.69 133.83 113.19 133.70
  C 115.81 133.02 120.74 131.74 120.93 136.06
  Q 121.17 141.41 121.28 146.84
  A 0.99 0.99 0.0 0 1 120.51 147.83
  Q 111.69 149.83 102.77 151.74
  C 96.41 153.11 98.46 142.02 98.53 138.41
  A 1.42 1.42 0.0 0 1 99.69 137.05
  L 108.00 135.57
  Q 109.15 135.36 109.19 136.54
  L 109.36 141.37
  A 1.61 1.61 0.0 0 0 110.95 142.93
  Z"
/>
<path fill="#ffffff" d="
  M 481.00 252.56
  L 481.00 268.31
  L 480.47 260.30
  Q 480.38 259.00 480.22 260.29
  C 479.65 265.07 479.24 269.93 477.61 274.42
  C 473.35 286.14 468.16 296.73 460.76 306.80
  Q 455.75 313.62 451.81 321.12
  Q 451.56 321.61 451.11 321.29
  C 441.49 314.25 432.36 308.25 420.99 303.06
  Q 409.03 297.60 397.75 291.48
  A 1.24 1.23 -65.1 0 1 397.19 289.94
  L 403.40 274.15
  A 0.62 0.62 0.0 0 1 404.42 273.95
  C 407.78 277.39 411.36 279.62 416.43 279.96
  C 424.05 280.47 431.69 280.29 439.32 280.87
  C 444.33 281.25 448.94 283.80 453.65 285.49
  Q 454.97 285.96 453.86 285.12
  Q 446.83 279.79 437.24 278.82
  Q 422.41 277.31 415.84 276.81
  C 411.49 276.47 407.87 273.17 405.13 270.09
  Q 404.79 269.71 404.76 269.20
  C 404.62 266.46 405.35 263.47 405.55 261.43
  C 406.73 249.54 409.28 235.57 408.20 223.81
  C 407.66 218.00 402.54 211.80 397.82 205.51
  C 395.90 202.95 390.34 193.52 397.05 192.64
  C 402.51 191.93 407.95 192.67 413.50 192.06
  Q 414.04 192.00 413.72 191.55
  C 412.26 189.58 406.26 189.51 403.66 187.12
  A 1.52 1.51 53.6 0 1 404.03 184.64
  C 407.78 182.84 417.58 176.52 417.49 171.98
  Q 417.48 171.41 416.92 171.49
  Q 415.22 171.72 414.01 173.00
  Q 408.61 178.68 401.25 181.39
  C 395.22 183.60 395.59 176.68 390.88 177.93
  Q 390.31 178.08 390.38 178.66
  L 390.96 183.31
  Q 391.02 183.77 390.79 184.16
  Q 386.33 191.93 378.70 196.66
  Q 378.25 196.94 377.85 196.60
  C 375.13 194.29 365.06 184.32 366.92 180.08
  C 370.38 172.18 371.94 166.73 379.67 164.26
  C 391.91 160.35 403.40 157.00 414.64 150.42
  A 0.30 0.29 22.9 0 0 414.42 149.88
  C 406.81 151.69 398.46 154.95 392.09 156.84
  C 379.18 160.67 370.35 161.35 365.33 174.81
  Q 364.62 176.73 363.41 177.90
  Q 362.96 178.33 362.48 177.94
  C 356.66 173.14 353.23 168.18 345.32 166.55
  A 0.58 0.57 -63.2 0 1 345.01 165.60
  C 351.51 158.34 360.88 143.11 372.48 144.40
  Q 380.78 145.32 389.08 143.99
  A 0.67 0.67 0.0 0 0 389.04 142.66
  C 376.86 141.43 366.22 138.55 357.29 146.97
  Q 350.62 153.26 345.14 160.65
  Q 344.00 162.19 342.63 163.50
  Q 342.23 163.89 341.83 163.49
  C 335.74 157.33 331.03 153.05 322.79 152.82
  A 0.84 0.84 0.0 0 1 322.23 151.39
  Q 327.59 146.10 333.19 141.20
  C 337.60 137.33 340.48 135.92 346.70 136.02
  C 361.90 136.27 373.61 138.20 387.10 140.28
  C 389.68 140.68 392.31 140.25 394.86 140.63
  C 406.97 142.42 417.22 142.07 427.26 143.98
  C 434.75 145.40 440.41 157.48 442.29 164.24
  Q 444.91 173.67 453.41 200.24
  C 458.65 216.63 462.84 235.13 467.53 250.20
  Q 468.04 251.84 469.81 254.09
  Q 470.41 254.86 470.11 253.93
  L 467.99 247.42
  Q 467.79 246.84 468.33 247.15
  L 479.56 253.70
  Q 480.04 253.98 480.13 254.53
  Q 480.19 254.86 480.34 255.11
  Q 480.65 255.60 480.72 255.02
  L 481.00 252.56
  Z"
/>
<path fill="#f5d545" d="
  M 83.89 152.55
  L 86.91 151.96
  Q 87.78 151.79 87.61 150.91
  L 86.23 143.87
  A 1.72 1.71 71.8 0 1 87.17 142.00
  L 94.00 138.76
  A 0.72 0.71 81.5 0 1 95.01 139.51
  Q 94.07 146.12 95.40 152.68
  Q 95.50 153.16 95.19 153.55
  C 92.05 157.49 81.92 160.55 77.06 162.50
  A 0.80 0.80 0.0 0 1 75.96 161.84
  L 74.70 149.70
  Q 74.64 149.14 75.13 148.84
  L 81.32 145.00
  Q 81.91 144.63 82.18 145.28
  Q 83.49 148.50 83.23 151.97
  Q 83.18 152.68 83.89 152.55
  Z"
/>
<path fill="#ffffff" d="
  M 284.34 153.73
  Q 282.08 149.63 284.16 145.98
  A 1.20 1.20 0.0 0 1 286.39 146.39
  L 287.53 153.80
  A 1.08 1.07 75.2 0 1 286.87 154.95
  Q 285.35 155.56 284.34 153.73
  Z"
/>
<path fill="#ffffff" d="
  M 291.15 157.15
  C 291.97 154.76 293.93 152.48 296.00 150.90
  C 300.35 147.56 306.60 153.37 301.97 157.18
  Q 297.40 160.92 291.50 157.99
  Q 290.96 157.72 291.15 157.15
  Z"
/>
<path fill="#f5d545" d="
  M 66.58 161.34
  L 66.22 154.68
  Q 66.19 154.05 66.75 153.74
  L 71.36 151.19
  Q 72.15 150.75 72.07 151.65
  Q 71.59 157.65 72.97 163.50
  Q 73.11 164.09 72.59 164.40
  L 57.35 173.76
  A 0.60 0.60 0.0 0 1 56.44 173.30
  L 55.38 161.99
  Q 55.33 161.49 55.60 161.08
  Q 57.58 158.06 61.11 157.01
  A 1.07 1.06 -16.1 0 1 62.44 157.74
  L 63.21 160.52
  Q 63.36 161.03 63.86 161.21
  L 65.85 161.89
  Q 66.62 162.16 66.58 161.34
  Z"
/>
<path fill="#ffffff" d="
  M 316.28 232.00
  Q 316.67 229.49 316.75 225.25
  C 316.99 212.02 317.81 202.11 316.36 191.45
  C 315.27 183.37 314.63 176.68 311.01 169.17
  A 2.48 2.46 47.6 0 1 311.11 166.83
  C 314.21 161.64 319.11 154.31 326.30 156.40
  Q 336.64 159.39 340.43 170.00
  C 346.28 186.35 349.99 198.71 359.06 209.67
  A 0.57 0.57 0.0 0 0 360.02 209.08
  C 354.57 196.39 349.60 185.24 345.57 172.37
  A 1.41 1.41 0.0 0 1 347.10 170.55
  C 351.14 171.09 360.10 180.25 361.46 182.05
  Q 370.83 194.44 381.43 205.82
  C 385.30 209.97 388.26 210.92 393.81 211.50
  C 402.71 212.44 405.32 225.23 404.61 232.27
  Q 402.87 249.66 400.95 267.05
  Q 400.48 271.31 399.02 275.22
  Q 391.20 296.10 381.88 316.41
  Q 376.80 327.49 374.58 339.71
  A 0.42 0.42 0.0 0 1 373.95 339.99
  C 363.78 333.74 352.31 327.12 340.62 324.47
  Q 323.09 320.49 304.97 320.78
  Q 304.36 320.79 304.53 320.20
  C 306.34 314.00 311.06 305.33 306.59 299.43
  C 299.77 290.43 290.93 278.83 288.04 268.27
  C 285.57 259.27 286.38 249.42 286.89 240.16
  C 287.53 228.51 289.80 216.61 289.76 204.67
  Q 289.73 192.23 289.30 179.76
  A 1.57 1.55 -7.3 0 1 290.53 178.18
  Q 295.83 177.04 299.99 173.52
  C 303.49 170.55 300.59 168.55 300.72 165.45
  Q 300.83 162.65 302.67 164.56
  C 312.30 174.59 312.78 188.35 313.19 202.05
  Q 313.64 217.08 315.69 231.99
  Q 315.97 234.01 316.28 232.00
  Z
  M 301.40 189.27
  C 301.56 186.84 293.68 188.99 292.42 189.58
  Q 290.95 190.26 292.04 191.46
  C 293.23 192.76 299.17 190.39 300.82 189.97
  A 0.78 0.76 85.5 0 0 301.40 189.27
  Z
  M 395.94 220.30
  C 397.47 227.67 397.29 233.58 394.95 240.72
  Q 394.71 241.44 395.10 240.79
  C 399.03 234.38 403.35 226.58 396.29 220.10
  Q 395.81 219.66 395.94 220.30
  Z
  M 369.4765 243.5174
  A 12.24 1.44 69.4 0 0 366.5179 231.5533
  A 12.24 1.44 69.4 0 0 360.8635 220.6026
  A 12.24 1.44 69.4 0 0 363.8221 232.5667
  A 12.24 1.44 69.4 0 0 369.4765 243.5174
  Z"
/>
<path fill="#ffffff" d="
  M 289.40 174.11
  C 288.98 169.85 289.51 162.95 294.77 163.07
  C 296.57 163.11 297.96 168.25 298.34 169.59
  C 299.49 173.61 292.87 175.17 289.97 174.72
  Q 289.45 174.63 289.40 174.11
  Z"
/>
<path fill="#f5d545" d="
  M 43.61 180.26
  C 41.23 172.58 42.57 166.48 50.53 163.32
  A 0.75 0.75 0.0 0 1 51.55 164.00
  Q 51.64 169.51 53.47 174.71
  Q 53.68 175.31 53.12 175.63
  L 44.28 180.53
  Q 43.78 180.81 43.61 180.26
  Z"
/>
<path fill="#080705" d="
  M 202.06 172.19
  C 203.77 172.48 203.43 174.38 202.25 175.25
  C 197.90 178.46 190.28 177.40 185.01 175.97
  Q 160.61 169.37 136.01 176.83
  A 1.69 1.69 0.0 0 1 134.21 176.29
  C 133.08 174.93 134.29 173.76 135.54 173.24
  Q 152.45 166.27 170.52 166.86
  C 180.01 167.17 191.61 170.41 202.06 172.19
  Z"
/>
<path fill="#080705" d="
  M 199.82 179.49
  C 203.28 179.37 206.36 184.06 207.29 186.89
  Q 207.44 187.35 207.09 187.69
  Q 205.96 188.76 205.22 187.77
  C 204.39 186.67 198.91 181.30 199.21 179.99
  Q 199.32 179.50 199.82 179.49
  Z"
/>
<path fill="#080705" d="
  M 176.94 186.37
  C 169.48 185.97 162.32 187.25 155.55 187.65
  C 152.23 187.85 149.32 188.79 146.02 189.36
  Q 145.39 189.47 145.97 189.20
  Q 155.16 185.03 162.24 184.51
  Q 168.02 184.08 185.74 184.88
  C 187.33 184.95 188.46 185.79 188.49 187.39
  A 0.60 0.60 0.0 0 1 187.82 188.00
  C 184.18 187.57 180.26 186.55 176.94 186.37
  Z"
/>
<path fill="#080705" d="
  M 301.40 189.27
  A 0.78 0.76 85.5 0 1 300.82 189.97
  C 299.17 190.39 293.23 192.76 292.04 191.46
  Q 290.95 190.26 292.42 189.58
  C 293.68 188.99 301.56 186.84 301.40 189.27
  Z"
/>
<path fill="#080705" d="
  M 151.87 199.43
  A 0.75 0.75 0.0 0 1 152.16 200.40
  C 151.51 201.77 138.63 197.79 140.83 193.95
  Q 141.07 193.53 141.55 193.48
  Q 145.46 193.06 149.21 191.98
  C 160.47 188.76 172.92 188.60 184.52 189.87
  A 1.12 1.12 0.0 0 1 185.39 191.51
  C 184.16 193.82 183.47 195.06 182.46 198.14
  Q 181.40 201.42 177.29 201.60
  Q 169.69 201.95 166.01 202.27
  Q 165.48 202.32 165.12 201.92
  Q 161.75 198.13 161.08 193.15
  Q 160.99 192.55 160.42 192.38
  Q 157.65 191.57 154.92 192.60
  Q 154.42 192.78 153.89 192.72
  Q 150.14 192.29 146.45 193.43
  A 1.41 1.41 0.0 0 0 146.14 195.98
  L 151.87 199.43
  Z
  M 178.71 193.35
  A 1.49 1.49 0.0 0 0 176.40 193.43
  Q 174.54 195.90 174.75 198.95
  Q 174.79 199.48 175.32 199.48
  C 178.50 199.50 180.76 195.70 178.71 193.35
  Z"
/>
<path fill="#080705" d="
  M 243.55 200.35
  C 240.55 200.26 236.88 197.69 236.46 194.54
  Q 236.37 193.88 237.01 193.69
  Q 251.24 189.58 265.89 189.04
  C 269.45 188.91 273.44 189.78 277.32 189.78
  Q 277.85 189.78 277.97 190.30
  L 278.19 191.28
  Q 278.31 191.81 277.81 192.03
  Q 273.54 193.94 272.29 198.52
  C 271.22 202.45 261.32 202.68 258.37 202.30
  Q 257.88 202.23 257.67 201.78
  Q 255.59 197.35 255.42 192.50
  A 0.77 0.77 0.0 0 0 254.52 191.77
  L 241.47 194.01
  A 1.12 1.12 0.0 0 0 240.79 195.82
  L 243.91 199.62
  Q 244.54 200.38 243.55 200.35
  Z
  M 265.90 196.17
  C 266.38 199.96 270.94 198.10 270.64 194.64
  Q 270.57 193.83 269.80 194.10
  L 266.43 195.31
  Q 265.82 195.53 265.90 196.17
  Z"
/>
<path fill="#ffffff" d="
  M 178.71 193.35
  C 180.76 195.70 178.50 199.50 175.32 199.48
  Q 174.79 199.48 174.75 198.95
  Q 174.54 195.90 176.40 193.43
  A 1.49 1.49 0.0 0 1 178.71 193.35
  Z"
/>
<path fill="#ffffff" d="
  M 266.43 195.31
  L 269.80 194.10
  Q 270.57 193.83 270.64 194.64
  C 270.94 198.10 266.38 199.96 265.90 196.17
  Q 265.82 195.53 266.43 195.31
  Z"
/>
<path fill="#ffffff" d="
  M 384.31 196.99
  A 1.62 1.62 0.0 0 1 385.78 194.77
  Q 389.52 194.70 389.49 197.93
  A 1.37 1.36 -4.3 0 1 388.35 199.25
  Q 385.41 199.72 384.31 196.99
  Z"
/>
<path fill="#080705" d="
  M 61.12 216.74
  A 0.60 0.60 0.0 0 0 60.30 216.59
  C 56.15 219.36 49.04 225.89 50.23 231.56
  C 50.88 234.64 54.64 238.83 56.55 242.01
  A 0.41 0.41 0.0 0 1 55.98 242.57
  C 51.90 239.96 45.96 233.78 46.95 228.40
  C 47.80 223.85 53.75 217.36 56.72 214.93
  Q 59.22 212.88 57.06 210.48
  Q 52.37 205.28 46.43 201.13
  A 1.92 1.92 0.0 0 0 43.78 201.55
  L 39.74 206.93
  A 0.26 0.26 0.0 0 1 39.27 206.74
  Q 40.13 201.18 44.16 197.36
  Q 44.56 196.98 45.09 197.11
  C 52.28 198.93 61.81 211.65 65.78 217.72
  C 68.67 222.14 64.95 229.76 64.98 234.64
  C 64.99 237.06 66.23 239.44 66.51 241.97
  Q 66.58 242.59 66.00 242.34
  C 59.97 239.71 61.74 232.00 63.06 226.79
  C 64.11 222.63 63.49 219.97 61.12 216.74
  Z"
/>
<ellipse fill="#080705" cx="0.00" cy="0.00" transform="translate(81.66,202.18) rotate(-36.6)" rx="7.44" ry="1.65"/>
<path fill="#080705" d="
  M 394.95 240.72
  C 397.29 233.58 397.47 227.67 395.94 220.30
  Q 395.81 219.66 396.29 220.10
  C 403.35 226.58 399.03 234.38 395.10 240.79
  Q 394.71 241.44 394.95 240.72
  Z"
/>
<ellipse fill="#080705" cx="0.00" cy="0.00" transform="translate(365.17,232.06) rotate(69.4)" rx="12.24" ry="1.44"/>
<path fill="#080705" d="
  M 205.56 255.44
  Q 208.62 257.50 210.81 261.91
  Q 211.10 262.48 210.65 262.02
  C 207.75 259.01 202.96 256.78 198.97 259.15
  C 196.57 260.58 192.36 264.52 189.62 261.42
  Q 183.63 254.63 189.65 247.73
  Q 189.98 247.35 190.42 247.60
  C 192.18 248.59 188.41 255.80 192.62 258.88
  Q 193.06 259.20 193.46 258.83
  C 196.98 255.64 200.69 252.15 205.56 255.44
  Z"
/>
<path fill="#ffffff" d="
  M 265.98 311.03
  Q 265.38 310.69 265.61 310.05
  C 271.47 293.60 277.49 280.13 282.05 260.85
  C 282.50 258.96 282.73 257.20 282.90 254.87
  Q 283.34 249.14 283.50 254.96
  C 283.66 260.87 283.45 267.18 285.81 272.68
  C 290.13 282.77 295.97 290.61 303.28 299.99
  C 306.76 304.45 302.90 313.48 301.80 318.53
  C 301.44 320.19 298.61 322.41 297.53 323.94
  Q 295.93 326.21 294.23 328.42
  Q 293.91 328.83 293.49 328.52
  Q 280.31 318.88 265.98 311.03
  Z"
/>
<path fill="#080705" d="
  M 216.00 286.89
  C 208.89 283.73 214.26 268.80 218.04 271.73
  Q 218.51 272.09 218.32 272.64
  L 215.64 280.85
  Q 215.47 281.35 215.61 281.85
  L 216.75 286.26
  A 0.54 0.54 0.0 0 1 216.00 286.89
  Z"
/>
<path fill="#ffffff" d="
  M 481.00 271.81
  L 481.00 373.81
  Q 476.12 369.92 473.99 368.71
  Q 456.77 358.95 440.14 347.64
  A 1.00 0.99 -48.9 0 1 440.04 346.08
  C 445.23 341.45 449.09 332.36 454.34 322.58
  C 458.73 314.38 466.12 305.40 470.21 298.22
  C 475.07 289.68 478.68 281.38 481.00 271.81
  Z"
/>
<path fill="#080705" d="
  M 213.33 292.61
  A 0.35 0.35 0.0 0 1 213.45 293.18
  L 212.90 293.72
  Q 212.66 293.96 212.34 294.07
  Q 197.10 299.23 178.74 303.97
  Q 176.08 304.66 173.79 304.48
  Q 173.04 304.41 173.68 304.03
  Q 179.26 300.71 185.48 298.95
  Q 197.76 295.48 209.91 291.64
  Q 210.51 291.45 211.10 291.69
  L 213.33 292.61
  Z"
/>
<path fill="#080705" d="
  M 241.75 297.66
  Q 238.42 295.79 234.69 294.92
  Q 234.24 294.82 233.79 294.94
  L 230.36 295.84
  Q 229.58 296.04 229.58 295.23
  C 229.57 291.59 234.71 291.22 237.24 292.27
  Q 243.78 295.00 248.84 299.16
  A 1.24 1.24 0.0 0 1 248.26 301.34
  Q 237.96 303.06 228.08 299.67
  A 0.48 0.48 0.0 0 1 228.23 298.74
  L 241.54 298.50
  A 0.45 0.45 0.0 0 0 241.75 297.66
  Z"
/>
<path fill="#080705" d="
  M 210.08 300.26
  A 0.44 0.44 0.0 0 1 209.78 299.61
  Q 211.27 296.95 214.42 297.56
  Q 215.00 297.68 215.14 298.25
  C 215.86 301.16 211.61 300.56 210.08 300.26
  Z"
/>
<path fill="#080705" d="
  M 193.93 312.07
  A 1.38 1.38 0.0 0 1 193.17 311.31
  C 192.45 309.53 193.83 308.84 195.30 309.20
  C 201.99 310.83 208.68 312.71 215.67 312.33
  C 220.54 312.07 225.02 311.07 229.92 312.58
  A 0.79 0.79 0.0 0 1 230.20 313.93
  Q 229.37 314.63 228.34 314.86
  Q 210.81 318.77 193.93 312.07
  Z"
/>
<path fill="#ffffff" d="
  M 437.71 343.36
  C 434.47 339.83 435.76 328.19 436.32 323.58
  C 436.63 321.00 435.98 318.48 436.01 315.73
  Q 436.02 314.71 436.87 315.28
  L 449.50 323.80
  A 0.94 0.94 0.0 0 1 449.79 325.05
  L 439.14 343.21
  A 0.89 0.89 0.0 0 1 437.71 343.36
  Z"
/>
<path fill="#f5d545" d="
  M 389.07 315.79
  L 394.76 327.20
  A 1.91 1.90 61.6 0 1 394.02 329.70
  L 382.48 336.46
  A 1.10 1.09 69.7 0 1 380.85 335.71
  C 379.60 328.84 383.93 320.99 387.81 315.69
  A 0.74 0.74 0.0 0 1 389.07 315.79
  Z"
/>
<path fill="#f5d545" d="
  M 391.18 358.36
  C 387.79 354.54 384.52 346.26 383.34 343.67
  C 381.36 339.33 393.62 334.53 396.50 333.48
  Q 397.15 333.25 397.53 333.82
  L 400.82 338.81
  Q 401.16 339.33 400.64 339.66
  C 398.03 341.30 393.54 342.88 394.72 346.68
  A 1.52 1.52 0.0 0 0 397.17 347.38
  L 400.77 344.26
  A 1.64 1.64 0.0 0 1 403.38 344.92
  L 405.11 349.51
  Q 405.28 349.96 404.95 350.31
  Q 399.65 356.01 392.30 358.65
  Q 391.65 358.88 391.18 358.36
  Z"
/>
<ellipse fill="#ffffff" cx="0.00" cy="0.00" transform="translate(378.66,343.87) rotate(52.7)" rx="2.56" ry="1.25"/>
<ellipse fill="#080705" cx="0.00" cy="0.00" transform="translate(219.92,347.55) rotate(118.6)" rx="5.82" ry="1.58"/>
<path fill="#f5d545" d="
  M 402.09 372.24
  Q 405.57 371.35 408.29 368.92
  A 0.47 0.47 0.0 0 1 409.07 369.23
  C 410.05 378.66 403.68 381.14 397.78 386.25
  A 0.95 0.94 71.0 0 1 396.22 385.49
  C 396.35 382.73 396.73 380.26 396.07 377.54
  Q 394.50 371.15 393.09 364.83
  Q 392.92 364.07 393.58 363.64
  L 405.19 356.12
  Q 406.87 355.03 407.03 357.03
  L 407.56 363.51
  Q 407.61 364.13 407.13 364.53
  C 405.77 365.65 400.65 369.12 401.37 371.81
  Q 401.52 372.38 402.09 372.24
  Z"
/>
<path fill="#080705" d="
  M 278.60 377.46
  A 0.41 0.40 44.6 0 1 278.59 376.67
  C 292.45 373.62 307.57 378.40 319.75 385.05
  C 322.21 386.40 327.00 389.34 327.23 392.03
  Q 327.29 392.75 326.57 392.75
  L 325.72 392.75
  Q 325.25 392.75 324.87 392.50
  Q 306.95 380.80 285.61 378.85
  C 283.17 378.63 281.00 377.98 278.60 377.46
  Z"
/>
<path fill="#f5d545" d="
  M 401.44 395.93
  A 0.41 0.40 -69.3 0 0 401.75 396.62
  C 407.19 396.33 402.92 400.94 401.64 402.23
  Q 401.28 402.59 400.77 402.55
  L 397.71 402.30
  Q 396.94 402.24 396.92 401.47
  L 396.69 392.81
  Q 396.67 392.22 397.13 391.85
  L 405.68 384.89
  A 1.00 0.99 -10.8 0 1 407.26 385.96
  L 405.53 391.48
  Q 405.33 392.12 404.68 392.28
  Q 402.65 392.80 402.24 394.80
  Q 402.16 395.22 401.86 395.52
  L 401.44 395.93
  Z"
/>
<path fill="#ffffff" d="
  M 396.34 411.68
  C 396.01 409.59 397.38 406.48 399.91 407.40
  A 1.18 1.17 18.9 0 1 400.63 408.86
  L 396.64 421.20
  Q 396.44 421.84 395.89 421.44
  C 395.44 421.11 396.62 413.39 396.34 411.68
  Z"
/>
</svg>
