<?xml version="1.0" encoding="UTF-8" standalone="no"?>
<!DOCTYPE svg PUBLIC "-//W3C//DTD SVG 1.1//EN" "http://www.w3.org/Graphics/SVG/1.1/DTD/svg11.dtd">
<svg xmlns="http://www.w3.org/2000/svg" version="1.1" viewBox="0.00 0.00 267.00 221.00">
<g stroke-width="2.00" fill="none" stroke-linecap="butt">
<path stroke="#f19093" vector-effect="non-scaling-stroke" d="
  M 154.81 0.00
  C 147.15 1.20 142.63 5.83 134.54 5.70
  A 1.07 1.07 0.0 0 1 133.77 5.35
  C 129.45 0.68 124.67 -2.09 119.02 2.83
  C 114.17 7.05 109.03 5.41 103.04 3.66
  C 97.57 2.06 80.39 0.92 81.95 11.01
  Q 83.27 19.57 92.65 22.05
  Q 109.44 26.48 124.26 17.70
  Q 127.50 15.79 130.91 14.58
  A 0.75 0.75 0.0 0 1 131.91 15.31
  C 131.78 19.71 130.01 27.71 124.94 29.17
  Q 124.35 29.34 123.84 29.00
  L 120.79 26.97
  A 1.22 1.21 -80.2 0 0 118.94 28.28
  C 120.13 33.04 124.01 34.79 128.20 32.04
  C 132.60 29.14 133.91 23.92 135.13 18.73
  Q 135.25 18.20 135.71 18.49
  C 145.88 25.03 164.90 28.31 173.23 16.73
  C 179.23 8.40 170.01 0.82 162.04 0.00"
/>
<path stroke="#9d918a" vector-effect="non-scaling-stroke" d="
  M 267.00 127.07
  C 265.08 113.47 254.33 106.51 241.24 106.51
  C 227.09 106.50 218.31 116.67 216.62 130.01
  A 0.19 0.18 -41.6 0 1 216.25 129.99
  L 216.25 108.38
  Q 216.25 107.75 215.62 107.75
  L 209.37 107.75
  Q 208.75 107.75 208.75 108.38
  L 208.75 128.00
  Q 208.75 128.50 208.25 128.50
  L 179.25 128.50
  Q 178.75 128.50 178.75 128.00
  L 178.75 108.38
  Q 178.75 107.75 178.13 107.75
  L 172.88 107.75
  Q 172.25 107.75 172.25 108.37
  L 172.25 158.62
  Q 172.25 159.25 172.87 159.25
  L 178.12 159.25
  Q 178.75 159.25 178.75 158.62
  L 178.75 136.50
  Q 178.75 136.00 179.25 136.00
  L 208.25 136.00
  Q 208.75 136.00 208.75 136.50
  L 208.75 158.62
  Q 208.75 159.25 209.38 159.25
  L 215.63 159.25
  Q 216.25 159.25 216.25 158.62
  L 216.25 141.70
  A 0.19 0.19 0.0 0 1 216.63 141.66
  Q 218.51 150.65 224.76 155.93
  Q 230.38 160.68 239.19 161.60
  Q 258.21 163.60 265.85 144.40
  C 266.48 142.81 266.58 140.58 267.00 138.81"
/>
<path stroke="#f19093" vector-effect="non-scaling-stroke" d="
  M 134.67 221.00
  C 135.90 207.63 135.80 194.24 140.03 180.89
  C 143.29 170.58 143.82 161.53 142.08 151.06
  C 139.10 133.16 145.56 116.45 146.00 98.79"
/>
<path stroke="#9d918a" vector-effect="non-scaling-stroke" d="
  M 146.00 98.79
  L 153.49 98.72
  Q 154.00 98.71 154.00 98.20
  L 154.00 93.56
  Q 154.00 92.97 153.41 92.96
  L 145.21 92.75"
/>
<path stroke="#f19093" vector-effect="non-scaling-stroke" d="
  M 145.21 92.75
  C 143.65 85.73 139.81 80.44 136.37 74.60
  C 134.32 71.13 134.14 68.35 135.13 64.14
  Q 137.27 55.02 137.25 45.95
  A 0.94 0.94 0.0 0 0 135.74 45.20
  C 130.91 48.88 130.61 63.84 130.81 69.44
  C 130.88 71.29 131.92 74.70 132.91 76.85
  Q 136.61 84.83 140.00 92.96"
/>
<path stroke="#9d918a" vector-effect="non-scaling-stroke" d="
  M 140.00 92.96
  L 113.75 92.96"
/>
<path stroke="#f19093" vector-effect="non-scaling-stroke" d="
  M 113.75 92.96
  C 116.46 85.48 122.41 76.26 122.75 68.51
  C 123.03 62.19 122.18 49.74 118.23 45.40
  A 1.20 1.20 0.0 0 0 116.15 46.25
  Q 116.49 55.32 118.40 64.13
  C 119.32 68.38 119.22 71.12 117.11 74.59
  C 113.64 80.28 109.60 86.37 108.25 92.96"
/>
<path stroke="#9d918a" vector-effect="non-scaling-stroke" d="
  M 108.25 92.96
  L 100.06 93.00
  Q 99.50 93.01 99.50 93.56
  L 99.50 98.20
  A 0.51 0.51 0.0 0 0 100.01 98.71
  L 107.62 98.76"
/>
<path stroke="#f19093" vector-effect="non-scaling-stroke" d="
  M 107.62 98.76
  Q 107.22 106.44 108.77 113.26
  C 111.56 125.54 113.42 138.88 111.40 151.20
  C 109.68 161.70 110.29 170.50 113.45 180.87
  C 117.49 194.17 117.67 208.00 118.88 221.00"
/>
<path stroke="#9d918a" vector-effect="non-scaling-stroke" d="
  M 0.00 152.95
  C 11.88 154.71 27.78 153.91 26.31 137.50
  C 25.86 132.51 23.26 129.18 18.88 127.09
  Q 18.24 126.79 18.86 126.45
  C 25.80 122.62 27.07 112.45 21.53 107.52
  C 16.31 102.88 6.74 103.47 0.00 104.94"
/>
<path stroke="#f19093" vector-effect="non-scaling-stroke" d="
  M 124.15 40.15
  C 125.36 32.22 111.99 32.79 107.57 33.90
  Q 96.88 36.59 87.26 34.26
  C 66.63 29.27 49.98 25.68 32.13 38.49
  Q 30.39 39.73 32.44 40.33
  Q 32.70 40.41 34.24 39.95
  C 40.72 37.98 47.79 34.97 53.82 34.08
  Q 64.89 32.45 74.44 35.80
  C 82.62 38.67 92.56 42.07 100.23 40.04
  C 108.94 37.73 114.56 37.38 123.04 40.79
  A 0.82 0.82 0.0 0 0 124.15 40.15"
/>
<path stroke="#f19093" vector-effect="non-scaling-stroke" d="
  M 154.06 35.19
  C 149.27 34.75 143.33 32.62 138.85 33.04
  C 135.04 33.39 128.58 35.06 129.29 40.20
  A 0.74 0.73 75.0 0 0 130.29 40.79
  C 138.92 37.29 144.78 37.76 153.62 40.12
  C 160.28 41.90 170.40 38.91 176.81 36.75
  C 187.93 33.00 196.76 32.54 208.13 36.31
  C 212.56 37.78 219.71 41.00 222.15 40.11
  A 0.48 0.48 0.0 0 0 222.29 39.29
  C 205.84 26.18 187.46 28.80 168.53 33.58
  C 163.26 34.91 158.81 35.62 154.06 35.19"
/>
<path stroke="#9d918a" vector-effect="non-scaling-stroke" d="
  M 34.53 148.25
  A 0.53 0.53 0.0 0 1 34.00 147.72
  L 34.00 130.28
  A 0.53 0.53 0.0 0 1 34.53 129.75
  L 49.97 129.75
  A 0.53 0.53 0.0 0 0 50.50 129.22
  L 50.50 124.28
  A 0.53 0.53 0.0 0 0 49.97 123.75
  L 34.53 123.75
  A 0.53 0.53 0.0 0 1 34.00 123.22
  L 34.00 108.03
  A 0.53 0.53 0.0 0 1 34.53 107.50
  L 50.93 107.50
  A 0.53 0.53 0.0 0 0 51.46 106.98
  L 51.51 102.29
  A 0.53 0.53 0.0 0 0 50.98 101.75
  L 28.78 101.75
  A 0.53 0.53 0.0 0 0 28.25 102.28
  L 28.25 153.72
  A 0.53 0.53 0.0 0 0 28.78 154.25
  L 51.95 154.25
  A 0.53 0.53 0.0 0 0 52.48 153.72
  L 52.48 148.78
  A 0.53 0.53 0.0 0 0 51.95 148.25
  L 34.53 148.25"
/>
<path stroke="#9d918a" vector-effect="non-scaling-stroke" d="
  M 90.23 151.25
  A 0.48 0.48 0.0 0 1 89.75 150.77
  L 89.75 132.98
  A 0.48 0.48 0.0 0 1 90.23 132.50
  L 105.77 132.50
  A 0.48 0.48 0.0 0 0 106.25 132.02
  L 106.25 127.23
  A 0.48 0.48 0.0 0 0 105.77 126.75
  L 90.23 126.75
  A 0.48 0.48 0.0 0 1 89.75 126.27
  L 89.75 110.98
  A 0.48 0.48 0.0 0 1 90.23 110.50
  L 106.73 110.50
  A 0.48 0.48 0.0 0 0 107.21 110.02
  L 107.27 104.98
  A 0.48 0.48 0.0 0 0 106.79 104.50
  L 84.23 104.50
  A 0.48 0.48 0.0 0 0 83.75 104.98
  L 83.75 156.77
  A 0.48 0.48 0.0 0 0 84.23 157.25
  L 107.73 157.25
  A 0.48 0.48 0.0 0 0 108.21 156.77
  L 108.27 151.73
  A 0.48 0.48 0.0 0 0 107.79 151.25
  L 90.23 151.25"
/>
<path stroke="#9d918a" vector-effect="non-scaling-stroke" d="
  M 80.36 112.79
  C 75.24 104.96 62.18 104.81 54.05 106.04
  A 0.95 0.94 -4.7 0 0 53.25 106.97
  L 53.25 155.12
  Q 53.25 155.75 53.87 155.75
  L 58.63 155.75
  Q 59.25 155.75 59.25 155.12
  L 59.25 141.23
  A 1.11 1.10 86.8 0 1 60.23 140.13
  C 68.45 139.24 77.70 134.36 81.01 126.50
  C 82.74 122.38 82.92 116.71 80.36 112.79"
/>
<path stroke="#9d918a" vector-effect="non-scaling-stroke" d="
  M 152.23 152.75
  A 0.48 0.48 0.0 0 1 151.75 152.27
  L 151.75 134.48
  A 0.48 0.48 0.0 0 1 152.23 134.00
  L 167.77 134.00
  A 0.48 0.48 0.0 0 0 168.25 133.52
  L 168.25 128.73
  A 0.48 0.48 0.0 0 0 167.77 128.25
  L 152.23 128.25
  A 0.48 0.48 0.0 0 1 151.75 127.77
  L 151.75 112.48
  A 0.48 0.48 0.0 0 1 152.23 112.00
  L 168.77 112.00
  A 0.48 0.48 0.0 0 0 169.25 111.52
  L 169.25 106.48
  A 0.48 0.48 0.0 0 0 168.77 106.00
  L 146.41 106.00
  A 0.48 0.48 0.0 0 0 145.93 106.48
  L 146.04 158.02
  A 0.48 0.48 0.0 0 0 146.52 158.50
  L 169.73 158.50
  A 0.48 0.48 0.0 0 0 170.21 158.03
  L 170.26 153.24
  A 0.48 0.48 0.0 0 0 169.78 152.75
  L 152.23 152.75"
/>
<path stroke="#f19093" vector-effect="non-scaling-stroke" d="
  M 136.69 15.31
  Q 149.31 22.76 164.26 18.23
  C 167.84 17.14 172.33 13.87 171.22 9.69
  C 168.00 -2.41 142.81 7.87 136.31 11.06
  Q 135.91 11.26 135.74 11.66
  Q 134.68 14.13 136.69 15.31"
/>
<path stroke="#f19093" vector-effect="non-scaling-stroke" d="
  M 86.51 11.12
  C 88.02 15.95 99.68 18.37 103.78 18.63
  C 112.25 19.17 122.80 13.41 129.41 9.04
  Q 129.87 8.73 129.77 8.18
  C 129.28 5.53 127.13 4.26 124.48 5.04
  C 121.77 5.84 120.48 8.29 119.00 10.18
  A 2.49 2.49 0.0 0 1 116.37 11.04
  C 109.27 9.04 92.52 3.97 86.71 10.22
  Q 86.35 10.61 86.51 11.12"
/>
<path stroke="#8f221e" vector-effect="non-scaling-stroke" d="
  M 113.75 92.96
  Q 111.01 93.66 108.25 92.96"
/>
<path stroke="#8f221e" vector-effect="non-scaling-stroke" d="
  M 145.21 92.75
  Q 142.67 93.73 140.00 92.96"
/>
<path stroke="#8f221e" vector-effect="non-scaling-stroke" d="
  M 146.00 98.79
  L 140.75 98.79"
/>
<path stroke="#9d918a" vector-effect="non-scaling-stroke" d="
  M 140.75 98.79
  L 129.73 98.78
  Q 129.25 98.78 129.25 99.26
  L 129.25 176.88
  Q 129.25 177.50 128.63 177.50
  L 124.87 177.50
  Q 124.25 177.50 124.25 176.88
  L 124.25 99.26
  Q 124.25 98.78 123.77 98.78
  L 112.50 98.79"
/>
<path stroke="#8f221e" vector-effect="non-scaling-stroke" d="
  M 112.50 98.79
  L 107.62 98.76"
/>
<path stroke="#f19093" vector-effect="non-scaling-stroke" d="
  M 112.50 98.79
  Q 112.51 109.45 113.47 112.50
  C 116.91 123.41 117.93 133.40 116.42 145.16
  C 115.23 154.44 113.62 163.61 114.58 173.00
  C 114.99 176.99 116.58 180.76 117.87 184.65
  C 121.63 195.96 122.32 209.16 121.69 221.00"
/>
<path stroke="#f19093" vector-effect="non-scaling-stroke" d="
  M 131.60 221.00
  Q 131.32 203.95 133.51 192.25
  C 134.66 186.08 138.33 178.80 138.99 172.20
  C 139.74 164.84 138.99 156.63 137.64 149.36
  Q 134.16 130.70 140.08 112.52
  Q 141.38 108.51 140.75 98.79"
/>
<path stroke="#9d918a" vector-effect="non-scaling-stroke" d="
  M 5.48 109.85
  L 5.50 123.93
  A 0.78 0.78 0.0 0 0 6.28 124.71
  L 11.20 124.70
  A 8.06 7.64 -0.1 0 0 19.25 117.05
  L 19.25 116.69
  A 8.06 7.64 -0.1 0 0 11.18 109.06
  L 6.26 109.07
  A 0.78 0.78 0.0 0 0 5.48 109.85"
/>
<path stroke="#9d918a" vector-effect="non-scaling-stroke" d="
  M 5.52 130.12
  L 5.48 148.18
  A 0.26 0.26 0.0 0 0 5.74 148.44
  L 10.53 148.45
  A 9.95 8.78 0.1 0 0 20.50 139.68
  L 20.50 138.66
  A 9.95 8.78 0.1 0 0 10.57 129.87
  L 5.78 129.86
  A 0.26 0.26 0.0 0 0 5.52 130.12"
/>
<path stroke="#9d918a" vector-effect="non-scaling-stroke" d="
  M 59.20 110.44
  L 59.28 133.06
  A 0.27 0.27 0.0 0 0 59.55 133.33
  L 59.74 133.33
  A 16.42 11.55 -0.2 0 0 76.12 121.72
  L 76.12 121.66
  A 16.42 11.55 -0.2 0 0 59.66 110.17
  L 59.47 110.17
  A 0.27 0.27 0.0 0 0 59.20 110.44"
/>
<path stroke="#9d918a" vector-effect="non-scaling-stroke" d="
  M 249.59 154.33
  C 266.31 145.76 265.06 109.11 239.41 112.45
  C 223.62 114.51 219.01 137.78 226.92 148.96
  C 231.79 155.85 242.33 158.05 249.59 154.33"
/>
</g>
<path fill="#ffffff" d="
  M 0.00 0.00
  L 154.81 0.00
  C 147.15 1.20 142.63 5.83 134.54 5.70
  A 1.07 1.07 0.0 0 1 133.77 5.35
  C 129.45 0.68 124.67 -2.09 119.02 2.83
  C 114.17 7.05 109.03 5.41 103.04 3.66
  C 97.57 2.06 80.39 0.92 81.95 11.01
  Q 83.27 19.57 92.65 22.05
  Q 109.44 26.48 124.26 17.70
  Q 127.50 15.79 130.91 14.58
  A 0.75 0.75 0.0 0 1 131.91 15.31
  C 131.78 19.71 130.01 27.71 124.94 29.17
  Q 124.35 29.34 123.84 29.00
  L 120.79 26.97
  A 1.22 1.21 -80.2 0 0 118.94 28.28
  C 120.13 33.04 124.01 34.79 128.20 32.04
  C 132.60 29.14 133.91 23.92 135.13 18.73
  Q 135.25 18.20 135.71 18.49
  C 145.88 25.03 164.90 28.31 173.23 16.73
  C 179.23 8.40 170.01 0.82 162.04 0.00
  L 267.00 0.00
  L 267.00 127.07
  C 265.08 113.47 254.33 106.51 241.24 106.51
  C 227.09 106.50 218.31 116.67 216.62 130.01
  A 0.19 0.18 -41.6 0 1 216.25 129.99
  L 216.25 108.38
  Q 216.25 107.75 215.62 107.75
  L 209.37 107.75
  Q 208.75 107.75 208.75 108.38
  L 208.75 128.00
  Q 208.75 128.50 208.25 128.50
  L 179.25 128.50
  Q 178.75 128.50 178.75 128.00
  L 178.75 108.38
  Q 178.75 107.75 178.13 107.75
  L 172.88 107.75
  Q 172.25 107.75 172.25 108.37
  L 172.25 158.62
  Q 172.25 159.25 172.87 159.25
  L 178.12 159.25
  Q 178.75 159.25 178.75 158.62
  L 178.75 136.50
  Q 178.75 136.00 179.25 136.00
  L 208.25 136.00
  Q 208.75 136.00 208.75 136.50
  L 208.75 158.62
  Q 208.75 159.25 209.38 159.25
  L 215.63 159.25
  Q 216.25 159.25 216.25 158.62
  L 216.25 141.70
  A 0.19 0.19 0.0 0 1 216.63 141.66
  Q 218.51 150.65 224.76 155.93
  Q 230.38 160.68 239.19 161.60
  Q 258.21 163.60 265.85 144.40
  C 266.48 142.81 266.58 140.58 267.00 138.81
  L 267.00 221.00
  L 134.67 221.00
  C 135.90 207.63 135.80 194.24 140.03 180.89
  C 143.29 170.58 143.82 161.53 142.08 151.06
  C 139.10 133.16 145.56 116.45 146.00 98.79
  L 153.49 98.72
  Q 154.00 98.71 154.00 98.20
  L 154.00 93.56
  Q 154.00 92.97 153.41 92.96
  L 145.21 92.75
  C 143.65 85.73 139.81 80.44 136.37 74.60
  C 134.32 71.13 134.14 68.35 135.13 64.14
  Q 137.27 55.02 137.25 45.95
  A 0.94 0.94 0.0 0 0 135.74 45.20
  C 130.91 48.88 130.61 63.84 130.81 69.44
  C 130.88 71.29 131.92 74.70 132.91 76.85
  Q 136.61 84.83 140.00 92.96
  L 113.75 92.96
  C 116.46 85.48 122.41 76.26 122.75 68.51
  C 123.03 62.19 122.18 49.74 118.23 45.40
  A 1.20 1.20 0.0 0 0 116.15 46.25
  Q 116.49 55.32 118.40 64.13
  C 119.32 68.38 119.22 71.12 117.11 74.59
  C 113.64 80.28 109.60 86.37 108.25 92.96
  L 100.06 93.00
  Q 99.50 93.01 99.50 93.56
  L 99.50 98.20
  A 0.51 0.51 0.0 0 0 100.01 98.71
  L 107.62 98.76
  Q 107.22 106.44 108.77 113.26
  C 111.56 125.54 113.42 138.88 111.40 151.20
  C 109.68 161.70 110.29 170.50 113.45 180.87
  C 117.49 194.17 117.67 208.00 118.88 221.00
  L 0.00 221.00
  L 0.00 152.95
  C 11.88 154.71 27.78 153.91 26.31 137.50
  C 25.86 132.51 23.26 129.18 18.88 127.09
  Q 18.24 126.79 18.86 126.45
  C 25.80 122.62 27.07 112.45 21.53 107.52
  C 16.31 102.88 6.74 103.47 0.00 104.94
  L 0.00 0.00
  Z
  M 124.15 40.15
  C 125.36 32.22 111.99 32.79 107.57 33.90
  Q 96.88 36.59 87.26 34.26
  C 66.63 29.27 49.98 25.68 32.13 38.49
  Q 30.39 39.73 32.44 40.33
  Q 32.70 40.41 34.24 39.95
  C 40.72 37.98 47.79 34.97 53.82 34.08
  Q 64.89 32.45 74.44 35.80
  C 82.62 38.67 92.56 42.07 100.23 40.04
  C 108.94 37.73 114.56 37.38 123.04 40.79
  A 0.82 0.82 0.0 0 0 124.15 40.15
  Z
  M 154.06 35.19
  C 149.27 34.75 143.33 32.62 138.85 33.04
  C 135.04 33.39 128.58 35.06 129.29 40.20
  A 0.74 0.73 75.0 0 0 130.29 40.79
  C 138.92 37.29 144.78 37.76 153.62 40.12
  C 160.28 41.90 170.40 38.91 176.81 36.75
  C 187.93 33.00 196.76 32.54 208.13 36.31
  C 212.56 37.78 219.71 41.00 222.15 40.11
  A 0.48 0.48 0.0 0 0 222.29 39.29
  C 205.84 26.18 187.46 28.80 168.53 33.58
  C 163.26 34.91 158.81 35.62 154.06 35.19
  Z
  M 34.53 148.25
  A 0.53 0.53 0.0 0 1 34.00 147.72
  L 34.00 130.28
  A 0.53 0.53 0.0 0 1 34.53 129.75
  L 49.97 129.75
  A 0.53 0.53 0.0 0 0 50.50 129.22
  L 50.50 124.28
  A 0.53 0.53 0.0 0 0 49.97 123.75
  L 34.53 123.75
  A 0.53 0.53 0.0 0 1 34.00 123.22
  L 34.00 108.03
  A 0.53 0.53 0.0 0 1 34.53 107.50
  L 50.93 107.50
  A 0.53 0.53 0.0 0 0 51.46 106.98
  L 51.51 102.29
  A 0.53 0.53 0.0 0 0 50.98 101.75
  L 28.78 101.75
  A 0.53 0.53 0.0 0 0 28.25 102.28
  L 28.25 153.72
  A 0.53 0.53 0.0 0 0 28.78 154.25
  L 51.95 154.25
  A 0.53 0.53 0.0 0 0 52.48 153.72
  L 52.48 148.78
  A 0.53 0.53 0.0 0 0 51.95 148.25
  L 34.53 148.25
  Z
  M 90.23 151.25
  A 0.48 0.48 0.0 0 1 89.75 150.77
  L 89.75 132.98
  A 0.48 0.48 0.0 0 1 90.23 132.50
  L 105.77 132.50
  A 0.48 0.48 0.0 0 0 106.25 132.02
  L 106.25 127.23
  A 0.48 0.48 0.0 0 0 105.77 126.75
  L 90.23 126.75
  A 0.48 0.48 0.0 0 1 89.75 126.27
  L 89.75 110.98
  A 0.48 0.48 0.0 0 1 90.23 110.50
  L 106.73 110.50
  A 0.48 0.48 0.0 0 0 107.21 110.02
  L 107.27 104.98
  A 0.48 0.48 0.0 0 0 106.79 104.50
  L 84.23 104.50
  A 0.48 0.48 0.0 0 0 83.75 104.98
  L 83.75 156.77
  A 0.48 0.48 0.0 0 0 84.23 157.25
  L 107.73 157.25
  A 0.48 0.48 0.0 0 0 108.21 156.77
  L 108.27 151.73
  A 0.48 0.48 0.0 0 0 107.79 151.25
  L 90.23 151.25
  Z
  M 80.36 112.79
  C 75.24 104.96 62.18 104.81 54.05 106.04
  A 0.95 0.94 -4.7 0 0 53.25 106.97
  L 53.25 155.12
  Q 53.25 155.75 53.87 155.75
  L 58.63 155.75
  Q 59.25 155.75 59.25 155.12
  L 59.25 141.23
  A 1.11 1.10 86.8 0 1 60.23 140.13
  C 68.45 139.24 77.70 134.36 81.01 126.50
  C 82.74 122.38 82.92 116.71 80.36 112.79
  Z
  M 152.23 152.75
  A 0.48 0.48 0.0 0 1 151.75 152.27
  L 151.75 134.48
  A 0.48 0.48 0.0 0 1 152.23 134.00
  L 167.77 134.00
  A 0.48 0.48 0.0 0 0 168.25 133.52
  L 168.25 128.73
  A 0.48 0.48 0.0 0 0 167.77 128.25
  L 152.23 128.25
  A 0.48 0.48 0.0 0 1 151.75 127.77
  L 151.75 112.48
  A 0.48 0.48 0.0 0 1 152.23 112.00
  L 168.77 112.00
  A 0.48 0.48 0.0 0 0 169.25 111.52
  L 169.25 106.48
  A 0.48 0.48 0.0 0 0 168.77 106.00
  L 146.41 106.00
  A 0.48 0.48 0.0 0 0 145.93 106.48
  L 146.04 158.02
  A 0.48 0.48 0.0 0 0 146.52 158.50
  L 169.73 158.50
  A 0.48 0.48 0.0 0 0 170.21 158.03
  L 170.26 153.24
  A 0.48 0.48 0.0 0 0 169.78 152.75
  L 152.23 152.75
  Z"
/>
<path fill="#e32127" d="
  M 154.81 0.00
  L 162.04 0.00
  C 170.01 0.82 179.23 8.40 173.23 16.73
  C 164.90 28.31 145.88 25.03 135.71 18.49
  Q 135.25 18.20 135.13 18.73
  C 133.91 23.92 132.60 29.14 128.20 32.04
  C 124.01 34.79 120.13 33.04 118.94 28.28
  A 1.22 1.21 -80.2 0 1 120.79 26.97
  L 123.84 29.00
  Q 124.35 29.34 124.94 29.17
  C 130.01 27.71 131.78 19.71 131.91 15.31
  A 0.75 0.75 0.0 0 0 130.91 14.58
  Q 127.50 15.79 124.26 17.70
  Q 109.44 26.48 92.65 22.05
  Q 83.27 19.57 81.95 11.01
  C 80.39 0.92 97.57 2.06 103.04 3.66
  C 109.03 5.41 114.17 7.05 119.02 2.83
  C 124.67 -2.09 129.45 0.68 133.77 5.35
  A 1.07 1.07 0.0 0 0 134.54 5.70
  C 142.63 5.83 147.15 1.20 154.81 0.00
  Z
  M 136.69 15.31
  Q 149.31 22.76 164.26 18.23
  C 167.84 17.14 172.33 13.87 171.22 9.69
  C 168.00 -2.41 142.81 7.87 136.31 11.06
  Q 135.91 11.26 135.74 11.66
  Q 134.68 14.13 136.69 15.31
  Z
  M 86.51 11.12
  C 88.02 15.95 99.68 18.37 103.78 18.63
  C 112.25 19.17 122.80 13.41 129.41 9.04
  Q 129.87 8.73 129.77 8.18
  C 129.28 5.53 127.13 4.26 124.48 5.04
  C 121.77 5.84 120.48 8.29 119.00 10.18
  A 2.49 2.49 0.0 0 1 116.37 11.04
  C 109.27 9.04 92.52 3.97 86.71 10.22
  Q 86.35 10.61 86.51 11.12
  Z"
/>
<path fill="#ffffff" d="
  M 136.69 15.31
  Q 134.68 14.13 135.74 11.66
  Q 135.91 11.26 136.31 11.06
  C 142.81 7.87 168.00 -2.41 171.22 9.69
  C 172.33 13.87 167.84 17.14 164.26 18.23
  Q 149.31 22.76 136.69 15.31
  Z"
/>
<path fill="#ffffff" d="
  M 103.78 18.63
  C 99.68 18.37 88.02 15.95 86.51 11.12
  Q 86.35 10.61 86.71 10.22
  C 92.52 3.97 109.27 9.04 116.37 11.04
  A 2.49 2.49 0.0 0 0 119.00 10.18
  C 120.48 8.29 121.77 5.84 124.48 5.04
  C 127.13 4.26 129.28 5.53 129.77 8.18
  Q 129.87 8.73 129.41 9.04
  C 122.80 13.41 112.25 19.17 103.78 18.63
  Z"
/>
<path fill="#e32127" d="
  M 107.57 33.90
  C 111.99 32.79 125.36 32.22 124.15 40.15
  A 0.82 0.82 0.0 0 1 123.04 40.79
  C 114.56 37.38 108.94 37.73 100.23 40.04
  C 92.56 42.07 82.62 38.67 74.44 35.80
  Q 64.89 32.45 53.82 34.08
  C 47.79 34.97 40.72 37.98 34.24 39.95
  Q 32.70 40.41 32.44 40.33
  Q 30.39 39.73 32.13 38.49
  C 49.98 25.68 66.63 29.27 87.26 34.26
  Q 96.88 36.59 107.57 33.90
  Z"
/>
<path fill="#e32127" d="
  M 154.06 35.19
  C 158.81 35.62 163.26 34.91 168.53 33.58
  C 187.46 28.80 205.84 26.18 222.29 39.29
  A 0.48 0.48 0.0 0 1 222.15 40.11
  C 219.71 41.00 212.56 37.78 208.13 36.31
  C 196.76 32.54 187.93 33.00 176.81 36.75
  C 170.40 38.91 160.28 41.90 153.62 40.12
  C 144.78 37.76 138.92 37.29 130.29 40.79
  A 0.74 0.73 75.0 0 1 129.29 40.20
  C 128.58 35.06 135.04 33.39 138.85 33.04
  C 143.33 32.62 149.27 34.75 154.06 35.19
  Z"
/>
<path fill="#e32127" d="
  M 113.75 92.96
  Q 111.01 93.66 108.25 92.96
  C 109.60 86.37 113.64 80.28 117.11 74.59
  C 119.22 71.12 119.32 68.38 118.40 64.13
  Q 116.49 55.32 116.15 46.25
  A 1.20 1.20 0.0 0 1 118.23 45.40
  C 122.18 49.74 123.03 62.19 122.75 68.51
  C 122.41 76.26 116.46 85.48 113.75 92.96
  Z"
/>
<path fill="#e32127" d="
  M 145.21 92.75
  Q 142.67 93.73 140.00 92.96
  Q 136.61 84.83 132.91 76.85
  C 131.92 74.70 130.88 71.29 130.81 69.44
  C 130.61 63.84 130.91 48.88 135.74 45.20
  A 0.94 0.94 0.0 0 1 137.25 45.95
  Q 137.27 55.02 135.13 64.14
  C 134.14 68.35 134.32 71.13 136.37 74.60
  C 139.81 80.44 143.65 85.73 145.21 92.75
  Z"
/>
<path fill="#3a2314" d="
  M 145.21 92.75
  L 153.41 92.96
  Q 154.00 92.97 154.00 93.56
  L 154.00 98.20
  Q 154.00 98.71 153.49 98.72
  L 146.00 98.79
  L 140.75 98.79
  L 129.73 98.78
  Q 129.25 98.78 129.25 99.26
  L 129.25 176.88
  Q 129.25 177.50 128.63 177.50
  L 124.87 177.50
  Q 124.25 177.50 124.25 176.88
  L 124.25 99.26
  Q 124.25 98.78 123.77 98.78
  L 112.50 98.79
  L 107.62 98.76
  L 100.01 98.71
  A 0.51 0.51 0.0 0 1 99.50 98.20
  L 99.50 93.56
  Q 99.50 93.01 100.06 93.00
  L 108.25 92.96
  Q 111.01 93.66 113.75 92.96
  L 140.00 92.96
  Q 142.67 93.73 145.21 92.75
  Z"
/>
<path fill="#e32127" d="
  M 112.50 98.79
  Q 112.51 109.45 113.47 112.50
  C 116.91 123.41 117.93 133.40 116.42 145.16
  C 115.23 154.44 113.62 163.61 114.58 173.00
  C 114.99 176.99 116.58 180.76 117.87 184.65
  C 121.63 195.96 122.32 209.16 121.69 221.00
  L 118.88 221.00
  C 117.67 208.00 117.49 194.17 113.45 180.87
  C 110.29 170.50 109.68 161.70 111.40 151.20
  C 113.42 138.88 111.56 125.54 108.77 113.26
  Q 107.22 106.44 107.62 98.76
  L 112.50 98.79
  Z"
/>
<path fill="#e32127" d="
  M 146.00 98.79
  C 145.56 116.45 139.10 133.16 142.08 151.06
  C 143.82 161.53 143.29 170.58 140.03 180.89
  C 135.80 194.24 135.90 207.63 134.67 221.00
  L 131.60 221.00
  Q 131.32 203.95 133.51 192.25
  C 134.66 186.08 138.33 178.80 138.99 172.20
  C 139.74 164.84 138.99 156.63 137.64 149.36
  Q 134.16 130.70 140.08 112.52
  Q 141.38 108.51 140.75 98.79
  L 146.00 98.79
  Z"
/>
<path fill="#ffffff" d="
  M 112.50 98.79
  L 123.77 98.78
  Q 124.25 98.78 124.25 99.26
  L 124.25 176.88
  Q 124.25 177.50 124.87 177.50
  L 128.63 177.50
  Q 129.25 177.50 129.25 176.88
  L 129.25 99.26
  Q 129.25 98.78 129.73 98.78
  L 140.75 98.79
  Q 141.38 108.51 140.08 112.52
  Q 134.16 130.70 137.64 149.36
  C 138.99 156.63 139.74 164.84 138.99 172.20
  C 138.33 178.80 134.66 186.08 133.51 192.25
  Q 131.32 203.95 131.60 221.00
  L 121.69 221.00
  C 122.32 209.16 121.63 195.96 117.87 184.65
  C 116.58 180.76 114.99 176.99 114.58 173.00
  C 113.62 163.61 115.23 154.44 116.42 145.16
  C 117.93 133.40 116.91 123.41 113.47 112.50
  Q 112.51 109.45 112.50 98.79
  Z"
/>
<path fill="#3a2314" d="
  M 34.53 148.25
  L 51.95 148.25
  A 0.53 0.53 0.0 0 1 52.48 148.78
  L 52.48 153.72
  A 0.53 0.53 0.0 0 1 51.95 154.25
  L 28.78 154.25
  A 0.53 0.53 0.0 0 1 28.25 153.72
  L 28.25 102.28
  A 0.53 0.53 0.0 0 1 28.78 101.75
  L 50.98 101.75
  A 0.53 0.53 0.0 0 1 51.51 102.29
  L 51.46 106.98
  A 0.53 0.53 0.0 0 1 50.93 107.50
  L 34.53 107.50
  A 0.53 0.53 0.0 0 0 34.00 108.03
  L 34.00 123.22
  A 0.53 0.53 0.0 0 0 34.53 123.75
  L 49.97 123.75
  A 0.53 0.53 0.0 0 1 50.50 124.28
  L 50.50 129.22
  A 0.53 0.53 0.0 0 1 49.97 129.75
  L 34.53 129.75
  A 0.53 0.53 0.0 0 0 34.00 130.28
  L 34.00 147.72
  A 0.53 0.53 0.0 0 0 34.53 148.25
  Z"
/>
<path fill="#3a2314" d="
  M 0.00 152.95
  L 0.00 104.94
  C 6.74 103.47 16.31 102.88 21.53 107.52
  C 27.07 112.45 25.80 122.62 18.86 126.45
  Q 18.24 126.79 18.88 127.09
  C 23.26 129.18 25.86 132.51 26.31 137.50
  C 27.78 153.91 11.88 154.71 0.00 152.95
  Z
  M 5.48 109.85
  L 5.50 123.93
  A 0.78 0.78 0.0 0 0 6.28 124.71
  L 11.20 124.70
  A 8.06 7.64 -0.1 0 0 19.25 117.05
  L 19.25 116.69
  A 8.06 7.64 -0.1 0 0 11.18 109.06
  L 6.26 109.07
  A 0.78 0.78 0.0 0 0 5.48 109.85
  Z
  M 5.52 130.12
  L 5.48 148.18
  A 0.26 0.26 0.0 0 0 5.74 148.44
  L 10.53 148.45
  A 9.95 8.78 0.1 0 0 20.50 139.68
  L 20.50 138.66
  A 9.95 8.78 0.1 0 0 10.57 129.87
  L 5.78 129.86
  A 0.26 0.26 0.0 0 0 5.52 130.12
  Z"
/>
<path fill="#3a2314" d="
  M 90.23 151.25
  L 107.79 151.25
  A 0.48 0.48 0.0 0 1 108.27 151.73
  L 108.21 156.77
  A 0.48 0.48 0.0 0 1 107.73 157.25
  L 84.23 157.25
  A 0.48 0.48 0.0 0 1 83.75 156.77
  L 83.75 104.98
  A 0.48 0.48 0.0 0 1 84.23 104.50
  L 106.79 104.50
  A 0.48 0.48 0.0 0 1 107.27 104.98
  L 107.21 110.02
  A 0.48 0.48 0.0 0 1 106.73 110.50
  L 90.23 110.50
  A 0.48 0.48 0.0 0 0 89.75 110.98
  L 89.75 126.27
  A 0.48 0.48 0.0 0 0 90.23 126.75
  L 105.77 126.75
  A 0.48 0.48 0.0 0 1 106.25 127.23
  L 106.25 132.02
  A 0.48 0.48 0.0 0 1 105.77 132.50
  L 90.23 132.50
  A 0.48 0.48 0.0 0 0 89.75 132.98
  L 89.75 150.77
  A 0.48 0.48 0.0 0 0 90.23 151.25
  Z"
/>
<path fill="#3a2314" d="
  M 54.05 106.04
  C 62.18 104.81 75.24 104.96 80.36 112.79
  C 82.92 116.71 82.74 122.38 81.01 126.50
  C 77.70 134.36 68.45 139.24 60.23 140.13
  A 1.11 1.10 86.8 0 0 59.25 141.23
  L 59.25 155.12
  Q 59.25 155.75 58.63 155.75
  L 53.87 155.75
  Q 53.25 155.75 53.25 155.12
  L 53.25 106.97
  A 0.95 0.94 -4.7 0 1 54.05 106.04
  Z
  M 59.20 110.44
  L 59.28 133.06
  A 0.27 0.27 0.0 0 0 59.55 133.33
  L 59.74 133.33
  A 16.42 11.55 -0.2 0 0 76.12 121.72
  L 76.12 121.66
  A 16.42 11.55 -0.2 0 0 59.66 110.17
  L 59.47 110.17
  A 0.27 0.27 0.0 0 0 59.20 110.44
  Z"
/>
<path fill="#3a2314" d="
  M 152.23 152.75
  L 169.78 152.75
  A 0.48 0.48 0.0 0 1 170.26 153.24
  L 170.21 158.03
  A 0.48 0.48 0.0 0 1 169.73 158.50
  L 146.52 158.50
  A 0.48 0.48 0.0 0 1 146.04 158.02
  L 145.93 106.48
  A 0.48 0.48 0.0 0 1 146.41 106.00
  L 168.77 106.00
  A 0.48 0.48 0.0 0 1 169.25 106.48
  L 169.25 111.52
  A 0.48 0.48 0.0 0 1 168.77 112.00
  L 152.23 112.00
  A 0.48 0.48 0.0 0 0 151.75 112.48
  L 151.75 127.77
  A 0.48 0.48 0.0 0 0 152.23 128.25
  L 167.77 128.25
  A 0.48 0.48 0.0 0 1 168.25 128.73
  L 168.25 133.52
  A 0.48 0.48 0.0 0 1 167.77 134.00
  L 152.23 134.00
  A 0.48 0.48 0.0 0 0 151.75 134.48
  L 151.75 152.27
  A 0.48 0.48 0.0 0 0 152.23 152.75
  Z"
/>
<path fill="#3a2314" d="
  M 267.00 127.07
  L 267.00 138.81
  C 266.58 140.58 266.48 142.81 265.85 144.40
  Q 258.21 163.60 239.19 161.60
  Q 230.38 160.68 224.76 155.93
  Q 218.51 150.65 216.63 141.66
  A 0.19 0.19 0.0 0 0 216.25 141.70
  L 216.25 158.62
  Q 216.25 159.25 215.63 159.25
  L 209.38 159.25
  Q 208.75 159.25 208.75 158.62
  L 208.75 136.50
  Q 208.75 136.00 208.25 136.00
  L 179.25 136.00
  Q 178.75 136.00 178.75 136.50
  L 178.75 158.62
  Q 178.75 159.25 178.12 159.25
  L 172.87 159.25
  Q 172.25 159.25 172.25 158.62
  L 172.25 108.37
  Q 172.25 107.75 172.88 107.75
  L 178.13 107.75
  Q 178.75 107.75 178.75 108.38
  L 178.75 128.00
  Q 178.75 128.50 179.25 128.50
  L 208.25 128.50
  Q 208.75 128.50 208.75 128.00
  L 208.75 108.38
  Q 208.75 107.75 209.37 107.75
  L 215.62 107.75
  Q 216.25 107.75 216.25 108.38
  L 216.25 129.99
  A 0.19 0.18 -41.6 0 0 216.62 130.01
  C 218.31 116.67 227.09 106.50 241.24 106.51
  C 254.33 106.51 265.08 113.47 267.00 127.07
  Z
  M 249.59 154.33
  C 266.31 145.76 265.06 109.11 239.41 112.45
  C 223.62 114.51 219.01 137.78 226.92 148.96
  C 231.79 155.85 242.33 158.05 249.59 154.33
  Z"
/>
<path fill="#ffffff" d="
  M 5.48 109.85
  A 0.78 0.78 0.0 0 1 6.26 109.07
  L 11.18 109.06
  A 8.06 7.64 -0.1 0 1 19.25 116.69
  L 19.25 117.05
  A 8.06 7.64 -0.1 0 1 11.20 124.70
  L 6.28 124.71
  A 0.78 0.78 0.0 0 1 5.50 123.93
  L 5.48 109.85
  Z"
/>
<path fill="#ffffff" d="
  M 59.20 110.44
  A 0.27 0.27 0.0 0 1 59.47 110.17
  L 59.66 110.17
  A 16.42 11.55 -0.2 0 1 76.12 121.66
  L 76.12 121.72
  A 16.42 11.55 -0.2 0 1 59.74 133.33
  L 59.55 133.33
  A 0.27 0.27 0.0 0 1 59.28 133.06
  L 59.20 110.44
  Z"
/>
<path fill="#ffffff" d="
  M 239.41 112.45
  C 265.06 109.11 266.31 145.76 249.59 154.33
  C 242.33 158.05 231.79 155.85 226.92 148.96
  C 219.01 137.78 223.62 114.51 239.41 112.45
  Z"
/>
<path fill="#ffffff" d="
  M 5.52 130.12
  A 0.26 0.26 0.0 0 1 5.78 129.86
  L 10.57 129.87
  A 9.95 8.78 0.1 0 1 20.50 138.66
  L 20.50 139.68
  A 9.95 8.78 0.1 0 1 10.53 148.45
  L 5.74 148.44
  A 0.26 0.26 0.0 0 1 5.48 148.18
  L 5.52 130.12
  Z"
/>
</svg>
